<mxfile host="65bd71144e">
    <diagram id="vPv7_rv3SYj0csS1qFPP" name="Page-1">
        <mxGraphModel dx="1085" dy="600" grid="1" gridSize="10" guides="1" tooltips="1" connect="1" arrows="1" fold="1" page="1" pageScale="1" pageWidth="850" pageHeight="1100" math="0" shadow="0">
            <root>
                <mxCell id="0"/>
                <mxCell id="1" parent="0"/>
                <mxCell id="2" value="" style="shape=image;verticalLabelPosition=bottom;labelBackgroundColor=default;verticalAlign=top;aspect=fixed;imageAspect=0;image=data:image/png,iVBORw0KGgoAAAANSUhEUgAAAvAAAAGRCAYAAAAD5ocYAAAgAElEQVR4XuydB1hUR/fGX3tN7Ensvffee1fsiL1hR8WGBQRFBVTECooVe0clVizYey+JRpMYu7F3jdj+M5M/+7EGWMqy7GXf+z15/NidcuZ3hnvfOffMkOCn7IW+ghcJkAAJkAAJkAAJkAAJkIAmCCSggNeEn2gkCZAACZAACZAACZAACSgCFPCcCCRAAiRAAiRAAiRAAiSgIQIU8BpyFk0lARIgARIgARIgARIgAQp4zgESIAESIAESIAESIAES0BABCngNOYumkgAJkAAJkAAJkAAJkAAFPOcACZAACZAACZAACZAACWiIAAW8hpxFU0mABEiABEiABEiABEiAAp5zgARIgARIgARIgARIgAQ0RIACXkPOoqkkQAIkQAIkQAIkQAIkQAHPOUACJEACJEACJEACJEACGiJAAa8hZ9FUEiABEiABEiABEiABEqCA5xwgARIgARIgARIgARIgAQ0RoIDXkLNoKgmQAAmQAAmQAAmQAAlQwHMOkAAJkAAJkAAJkAAJkICGCGhCwPey7YIa1aqgq21/DaGlqVonUKRwQWzZtBr5CpfV+lDilf2/XDiGLt374fyFS7E6Lvo/VvHGSeNy7nTs0huXLv8aJ/2zUxIgARIwFoEYCfgypUvCZYwDShQrgjt37mH2nAXYFLBNZ1uaNN+jV48umDZzTozsNbaAL1a0MOTDeb1/QIzssuTK6dKmxZVLx/+DYKTjOKxYtT7W0ZjChxRw0Xej/J2d6OqkGnj//j3OnrsIZ1cPXLv2e/Qb/f+aFPAxRhinDaRIkQI3rp3Dhw/B4r8POCcWYm4eXvj1ym+Rtiu6v/8U8JFGzIIkQAJmTiDaAv6771Lj7In9mOQ5Exs2BggRXxR+C73Rf+Bw7D94RA07Z87sOHF4NzLnKBwjDMYW8B3atYF16+Zo065bjOyy5MohAr5A0fJ4/fqNyVGYwocU8NF3a+jfWSnY7PrawrpNc1Su3jD6jVLAx5idOTQQIuBLl6+JFy9eoo24F48dMwLNWnfE9et/RMrE6P7+U8BHCi8LkQAJaIBAtAV8ieJFsXXzGuQuUApfvnxRQ+3Wpb2Kqqxdvwk7t65H9uzZkCF9Ojx69Fh977dsFWZ5z1fC/sj+Hciep7gOUeioWqJEiTB+7Gh0aNdaRfav//4nkidPrkuhyZY1Cya7j0XFCuVw7959DB3hrHudLoWDfDMQLOywatoQD/5+iOEjnXHq9Dlk/ulHBG7bAPkASZYsmXh4vFD99x/kgGPHT2nAXeZjYmQE/LpVi7FzVxBqVK+M2rWq4+ixk+jcra8ahBTH06e6o1DB/PjjzxvKRxcv/ftaO6Y+rFKpAlzHjkK+vLlx/OQZDB7miCdPnqq2f7t8EuPdPGHXryd++vEHbN0eKPp2wdevX9X3UhiMGT0MHz99wu49+9GmVTOm0ERj2n276E6bJg2uXj6BIiUq47n4vZO/i5PcxO9wxbJ48/otfBf4wW/pKl1PNWtUhfsEZ+Wjs+cuYMxYNzFP/lLfh75XNG/WGBPGOqKldWfcvHVbfU//R8NhJqwSWsD//fCR6tlFCPjs4r7ex26o+rlzRxsM6N8T6dOlwxnh/1GOrrgr7vWRuYeHVzdk7uwM3IOG9esgcZLEWLBwGWZ6z9ONvkL5MurZkzdPbty6fQeuE6eo+1bI5TB0IDp2sEZK8Qw5evwkRjmN191bInoumRAvuyIBErAQAtEW8IkTJ8au7f745Zer8Jrhgzt37/0HWXgReEMCvmePzujetSO62drh9Zs3WLZ4jrhJPlMCXva7Z+cmBO4OwszZvmjYoK4S8+Uq1cW7d++U+Bs53B62fQbh5KmzQqjZokWzJqjToIXOvuhGbyxkTkRqmJEV8MWLFxGvx6fh8i9X8EmI4qu/XUeqVCnVmxn59mbT5q1oZtUI48eNRqVqDfDq1esY+TBHjmwICgyAnb0Djhw5AcdRQ1Egf16079xLjUsK+KD9h+DkMhHfpU6Nzf4rMG78ZOwQD3W5qNgWsAY9eg/C6TPnVVRQvqlhDnykpoReodACPmnSJBhi3x91a9dAw6bWqtzqFQtx7frvmOA2FcVFCl6A8INVyw64cvWaWuDv2bEJ/QYMw5FjJ8R86Iq2bVqgdv3mqm6IgM+QIT1mTZ+Edh1t8cuvV9V39H/UfWXqGmEJ+IoVymLenOmQUXkZgFmxdB6aNLfB3yIA4zlpPFKnToWefewN3sMN1ZVzJ2jfQbUgzJc3D2SQQb413nfgsAjqJMXFM4cxZLgTdu3ZJxYRbTF65FAUK1VFLfCbNKqvUkZbWXfBK/HWcbrnRHwIDlYBAkPPJVMzZn8kQALxn0C0BbxE8/3336kHs414uP5546YS8oeP/C8vOroCPsB/pYriy//kFVoMVKlcAb7eXiglbvQhUdOdIqru7bNAiTBZtmb1KujS498Nr/KBfuxgIHLkLaF7U0ABH/OJHVYOvIyUShEWcsmHo1xETZ81V6/D1i2t0LtnVzRuZqP7XArptes2Yd2GzTHyocOwgcgvHsx9hfiTl1wsXP/1NIqWrIIXL18qAd+uk60u2j97xmTcvn1Xzd2RDvaQUTT7oaNVXabQRH+eyN9DGckM/vgRScSiW/7bqUsf8UbktGo0b55cuP/gocqPl5fcLLx85Vr4b9qCYYPtkC9fHtiJN2Pykm/k+vXpgfkLl6pFoBRhc+ctxuCBfdG95wBdm7Is/R99n5mqZlgCvqB4EyffjubOXwpy75R8tsi3r/KqIe7nnh6uqFS9gc7E8O7hhurKudOpa2/d7798y5MgAcSC3g1JkiRB7tw5dWk8UpTfuXEZZSvWFnP1b9QRbxGnTHJF776DcVFsgpVvheXC4vHjJzD0XDIVW/ZDAiRgOQRiJOBDMMkHbJPG9UWkRNzc+g3BkaMn1FfRFfAyOjtMpFSEpLWEFvCdOrQVr95d8Pz5v+kv8kojXs+7TfLCIr8VemJffidfwZ8/fRA585VAcPBHVZ4CPuYTPLIR+G07dv1nU+ugAX1QrEghnciW1szwchfpUA+UkP42/SIqPpwzeyoaNaiDN2/e6gaZKVNG1GvUSkV3pYC3ERHbkFMovKZMwLNnz+ExZYZI6XFTD2qv6T6qLgV89OdJaB8mTJgQdUT0fc4sT9SsawWZNlGgQD6MGDZICXmZgpcrZw71VkRuLA/tk7AskCJMvj359OmjeNNmj4OHjuqK0f/R95mpaoYXgff1mYYyFWopM/qLBZtMj5KpjsmTJ0PiRIlRoWo9nYkR3cMjqvttDrwsW1pE/Pv0H6Larl+vFvr26o70IvXz8+fPkJtly1euq9J35CWDD/INcQ6RHirfAntO81YC3tBzyVRs2Q8JkIDlEIi2gK9XtxZKijz40CfMTBKpLDLa5jBqrCKYPXtWnDq6F1lyFtFFy+XnGTNmwKWzh1UOvLxJyit0XquMwK9Zt1FFY+UVWgzIKMgEcbqFzHkNfb0Vgu39P/9ESvy1s2mF9jat1atQXtEjEBMBL/PKbbt3QtMW7XWdb1y3DOvFZuh16/+NwIc+NjQsAR+eD50dhyNjhgxwmzxNb2BywSfnWkQCXkbgs2bOjMHDHVVdCvjozY1vf2dDWjm0bzumTJ2F7Tt34+SRPZjlMx+r1/qrr6X/5e+7FPDDhwxQkdCBg0fqDKhWtZJa0EuxL+8V7pOm4cvXL3BxGoH6YnEm97rIi/6Pvs9MVTMsAe8kUt3kIk7mwMt0KfmGroM47vHp02eoXLG8SpUKLeDD+/03VPdbAS9z71OmTAHHMRPU80qm38lni1zsy+vB7as6AS+/l3u85J4uuadjrPMI/PBDJrWvx9BzyVRs2Q8JkIDlEIi2gM8vXnHv2LIeo8eMx/Ydu1WqypJFPli1egPmzvdTBGXu6+9XzqJn33+jZPK1qLwhy+vC6UMYNHSUSrmpXbMaVi6br9Iv5NnOUtx169JB5bx/+fwF8+dO1+XApxCvLffv2aJety9askJF3weIDYkLFy/HvfsPIiX+5Ca3RQtmoWETazwR9iQRm5lk7jWvyBOIiYCXJxgdF29Zxo2fhIAtO0RuaT14Th6PytUaqjSXyAj48HwoN8XKdJx+A4aruSXz3+WmtrGiLyn+IhLwhQsVUBuzu/W0w5Ur1zBqxGDmwEd+SuiVDO1DmZog39DJnOG6DVupzYF/XD2jcpoPiPuCjHKuFelW8ihBmTaXO1dOlU7Ro9dAlR4jc5H7iKho9dpNVB+hF/syBUoKv1Ztu6gFGv0fTYeZsFpoAf9UvP1q2byJOnK0hRDO8phRucG8Xt2asOlgK9KnEsLVZZSIjNcW+5zq6KwM7/ffUF05d9aIRaP75On48cdMYp75qxz2Q4ePoVTJ4ionvmqtxmpjqgw0+Ii3RhWr1VdpdvYD+6B+3dpib1Z/vBTPi+FDB6BMqRJqf42h55IJ8bIrEiABCyEQbQEv+cgd+2NGDxcP4ELiZImXSrzPEBtLQ1/y1eIYx2Fi135KrFy9Hs7j3NXXMmLhMdEF70QOrEy5ka8u7QaNUAJepuRMGOeI1q2s8OjhY5w+ex4/ZMqkO4VGPrA9RBqNvHnKc4RXrtmg0h5kTnxkxJ/sX76mby1u0PK0GkfnCdj883YLcblxhhkTAS8tkBsXZSpUgfz5xP6Jv8SmMnecO39RGRdTH8oTTGQkNo+I4so8a89ps7F1W6BqOyIBL7+Xr+blg1nOwY0iH1tupuYm1qjPmdDnwMvUtStXf1NpSiF7ZJo2biCi5w5IIhb5V8T53zJlQYr5qSIlQV5yUS9/x+XbFLm3QuYo3/jrpvoutICXYlBupg/afxDjJ3qq7+n/qPvLlDVCBLzc/yDnxoWLl8WG9hm6vHS5b0UuzMqVKaU2ix4+IvLWO9igQNFyKgIecoV1DzdUV86dwF171Qlm34tAwpJlq/VOoZGL9g42bYRdwdi774BYwLcQm9oHqpNoZE68vK/I1J5UKVMqu+UpNCGnH0X0XDIlX/ZFAiRgGQRiJOAtAxFHSQIkQAIkQAIkQAIkQALmQ4AC3nx8QUtIgARIgARIgARIgARIwCABCniDiFiABEiABEiABEiABEiABMyHAAW8+fiClpAACZAACZAACZAACZCAQQIU8AYRsQAJkAAJkAAJkAAJkAAJmA8BCnjz8QUtIQESIAESIAESIAESIAGDBCjgDSJiARIgARIgARIgARIgARIwHwIU8ObjC1pCAiRAAiRAAiRAAiRAAgYJUMAbRMQCJEACJEACJEACJEACJGA+BCjgzccXtIQESIAESIAESIAESIAEDBKggDeIiAVIgARIgARIgARIgARIwHwImLWA72XbBcmSJcMc30XmQ4yWmA0Bv4Xe8J6zEOcvXDIbm2iIeRAoUrggxjgOR6eufczDIFphVgR47zArd9AYEiCBaBCggI8GNFYxDwJ8CJuHH8zRCgp4c/SK+djEe4f5+IKWkAAJRI8ABXz0uLGWGRDgQ9gMnGCmJlDAm6ljzMQs3jvMxBE0gwRIINoEKOCjjY4V45oAH8Jx7QHz7Z8C3nx9Yw6W8d5hDl6gDSRAAjEhQAEfE3qsG6cE+BCOU/xm3TkFvFm7J86N470jzl1AA0iABGJIgAI+hgBZPe4I8CEcd+zNvWcKeHP3UNzax3tH3PJn7yRAAjEnQAEfc4ZsIY4I8CEcR+A10C0FvAacFIcm8t4Rh/DZNQmQgFEIUMAbBSMbiQsCfAjHBXVt9EkBrw0/xZWVvHfEFXn2SwIkYCwCFPDGIsl2TE6AD2GTI9dMhxTwmnFVnBjKe0ecYGenJEACRiRAAW9EmGzKtAT4EDYtby31RgGvJW+Z3lbeO0zPnD2SAAkYlwAFvHF5sjUTEuBD2ISwNdYVBbzGHGZic3nvMDFwdkcCJGB0AhTwRkfKBk1FgA9hU5HWXj8U8NrzmSkt5r3DlLTZFwmQQGwQMGsBHxsDZpskQAIkQAIkQAIkQAIkoGUCFPBa9h5tJwESIAESIAESIAESsDgCFPAW53IOmARIgARIgARIgARIQMsEKOC17D3aTgIkQAIkQAIkQAIkYHEEKOAtzuUcMAmQAAmQAAmQAAmQgJYJUMBr2Xu0nQRIgARIgARIgARIwOIIUMBbnMs5YBIgARIgARIgARIgAS0ToIDXsvdoOwmQAAmQAAmQAAmQgMURMGsB38u2C5IlS4Y5votM5hgb65YY0L8XsmbJjIuXfsFEDy9cuHhZr3+nUUORNm1ajHQcZxK7frt8EmnSfK/Xl9ukaSblYpKBRrET/jGWKAKzoOL8Q04W5OxoDJX3jmhAYxUSIAGzIkABH8odVSpXwJKFPujReyAu/3IFbVo2w+iRQ1CtdhM8efJUVzJ79qxImiQJ/rxx0yTOTJgwoernYNA2eE6bje07duPLly8m6ducO+FD2Jy9E7e2UcDHLX9z7533DnP3EO0jARIwRIACPhShfr17oG6dGmjboYfuU4+JztiwcQvOX7iEjeuWQYp8eflv2oJBQ0bp8e3c0QYjhw/Ci5evVPmmjRsgX+GyqoyMoo9384Rdv5746ccfsHV7IIaPdMHXr18N+Uj3/aF92zFl6ixs37lb95kUKn4LvLFk+WoMsuut2vOa4YNlK9ZGul1zK9imVTOULVMSCxevwF83b4VrHh/C5uY587GHAt58fGGOlvDeYY5eoU0kQAJRIUABH4pWnty5sDVgDebMXYgVq9fj9es3eiwTJEgA+d+wIXbImSO7noAvXqwI1q/xQ5Nm7ZTolEJ92GA7PQEftP8QnFwm4rvUqbHZfwXGjZ+MHYF7Iu2v8AT83sDNanGwZNkqlCtbGmtWLELZSrX13hpEuhMzKJg9W1b079sDLZo3xenT5zB/4VIcP3n6P5bxIWwGzjJTEyjgzdQxZmIW7x1m4giaQQIkEG0CmhTwp48FIWOmDLpBy2h367Zd1c9ShAftDtAD4jvfD55esyMFKW+eXCKKbo/atapj/4HDmOQ5Ezdv3darO3zIAOTKlUNPwI8eMQSZhE0yqi6vAgXyYcfP6/QEfLtOtiKv/lf1/ewZk3H79l0VLY/sFZ6A37p5NfIW+jfSL68zJ/bBfshoHDtxymDTEbHs2N4a7uINROirm60dDh0+pj6Krboh/SVLlhSNGtZD964dkDJFCjSyaqv3xoIPYYPutdgCFPAW6/pIDZz3jkhhYiESIAEzJqBJAW8KnqlTp0Kfnt3Qo1tH1G7QQi+aHZaAnz7VDQ8fPVYpLuEJeJuOtrh0+V8B7zVlAp49ew6PKTMiPZzwBPyWTat1CwXZ2LFDgXBynogDh45Gum1zLFiqRDF07NAWDerVxrYdu+A8zl3PTD6EzdFr5mETBbx5+MFcreC9w1w9Q7tIgAQiS4ACPhQpefrMLRFt3yY2iYZccuPoLO952BSwTfdZWAJ+pIM9ZOpHSF58WBF4CvjITcsypUuqBc73338Hv6WrsFKkM7169fo/lfkQjhxPSyxFAW+JXo/8mHnviDwrliQBEjBPAhTwofzSrm0rjBoxGL36DsavV66iauWKWDR/Ftq06642pYbOgc+dK6dOrMsTYQoXKoBtIn++W88BOHvuIlychsPGupVeCk10BXxEp9BIoRLfIvDVq1VGhvTp1Ubfz58/h/ubw4ewed5UzMEqCnhz8IL52sB7h/n6hpaRAAlEjgAF/DecOrRrIzZQ2iJbtiy4efM2vKb76Daahj6FJqTaBXFWfGORmy2vTiLdQ25wTZEiOXbv3g+rpg2NIuAjOgc+Pgr4yE1dgA/hyJKyvHIU8Jbn86iMmPeOqNBiWRIgAXMkQAFvRK/ISHnI+ezVqlbCjKnuKF+lrhF7YFOhCfAhzPkQHgEKeM6NiAjw3sH5QQIkoHUCFPBG8mC2rFkgN7La2Y/AP//8g4XzZuHevftwGDXWSD2wmW8J8CHMOUEBzzkQHQK8d0SHGuuQAAmYEwEKeCN6Y6h9f3Tp3E6l0Bw8eBSjxozHS/FHnXjFDgE+hGOHa3xolRH4+ODF2BsD7x2xx5YtkwAJmIaAWQt40yBgLyRAAiRAAiRAAiRAAiSgHQIU8NrxFS0lARIgARIgARIgARIgAVDAcxKQAAmQAAmQAAmQAAmQgIYIUMBryFk0lQRIgARIgARIgARIgAQo4DkHSIAESIAESIAESIAESEBDBCjgNeQsmkoCJEACJEACJEACJEACFPCcAyRAAiRAAiRAAiRAAiSgIQIU8BpyFk2NnwTkmeVbNq1GvsJl4+cAOSoSIAESIAESIAGjEjBrAd/LtguSJUuGOb6LjDpoNhY/CMTVH2PZsWUddu3Zh1ne86MEsljRwpBifb1/gF692BbwadJ8j149umDazDnh2rt18xr4LV2JzT9vj9KYDBXu06sbduzcg7virxKb0xVXc8ecGNCW8AlcPHMIJcvVICISIAESMFsCFPBm6xoaZohAXIiwzD/9iP17tuDmrTtoZGVtyES97zu0awPr1s3Rpl03kwr4nDmz48Th3cico3C49pYqWRw3b97Gi5cvozQmQ4XPntyPgfYjcfzkaUNFTfp9XMwdkw6QncWIAAV8jPCxMgmQgAkIUMCbADK7iB0CcSHCenTrhKxZfkK9OjXRqVtf3Lv/QA1OivOWzZugXaee6ucCBfJh13Z/5M5fClL0B27bgBQpUqg3Si9evFBl+g9ywLHjp1RUXqbQuHl4YfjQAUiQIIGIls/FkmWrdOC6d+2I/n16IH36dFizbiMmuE/Fp0+fVF2/Bd5Ysnw1Btn1xtevX+E1wwfLVqxVdXduXY/s2bMhg6j36NFj9ZmfaDfk7cGD21d1fQwb4azaDn3JPu369UTCRImwZ89+OLu6482bt6pIhfJlMH7saOTNkxu3bt+B68QpOHrspPpuwjhHtGjWGBkzZsDLV6/wMfgjLv9yBZ2791Pfp0ieHC5jHNDcqrEYx2dM8Zr1n76jM2vatGqGsmVKYuHiFfjr5q1wm4iLuROd8bBO3BCggI8b7uyVBEgg8gQo4CPPiiXNjEBciDD/tUuVUG1Yv46KVi9eslJRiUjAh2CLKAK/N3Azxk2YjOUr16JihXJY7ueLClXrKdHdsnlTODsNR3uxOHj+/AX8FvogaP9BzPZZoAS8rDvezVMJ/nJlS2PNikUoW6k2njx5qrqOKAKfMGFCVUaOa8PGn/VEdNs2LTDEvh+69uiPh8KOGV4eyp4xY93EQiQpLp45jCHDnVQ6UeeObTF65FAUK1VFLSJCrvAi8J6TxouFRVb0tRuKbFmzYP1qP3TvNQBnzl6I0SzLni0r+vftgRaC2enT5zB/4dIwo/9xMXdiNDBWNikBCniT4mZnJEAC0SBAAR8NaKxiHgTCEmF5cudC0G79HHPf+X7w9JqtjJ49YzKaWTXSG0DBouURLCLEhq50adMiYONK1KxrhQL582KS21hdOkxMBfy3m1iPHQrESEdXHDl6Aps2LMfPW3booup1RfR/zOhhqNOghRLwWzevRt5C/9sAe+bEPtgPGY1jJ04ZFPAhY964bhn8N23RE/BS1AeIfleuXq+K5ciRDZXE4kLm8CdJkgS5c+fE9et/qO8SJ06MOzcuo2zF2rj/4O8IBbyse+PaOWX/73/cUGVdxoxAsqRJ4TzO3ZAbIuVDucBo1LAeunftgJTizUcjq7Z6CwsKeIOYLboABbxFu5+DJwFNEKCA14SbaGRYBEwtwtrZtIKnx3i8fvNGmZNWbA4tUaYanomouLEFvMyzd5s0DUH7DuL86YNInjwZgj8E/yuWhQBOJCLnhYpX1KXfhD7BRop/J+eJOHDoaIwE/LftfOuD+vVqoW+v7iqt5/Pnz5CbdMtXrqu3YTWsCHzuXDkh2378+IlOVKdMmRKHjx6Hbe9BRpnspUoUQ8cObdGgXm1s27HrPwsDU88dowyKjZiMAAW8yVCzIxIggWgSoICPJjhWi3sCphZhMq1l9Vp/XLh4WQ1+xPBBOHXmHNat34zmIt+7R7eOaGXdRX0XOgc+hJRcALS3aa0rE/J5WKfQhBbw8tSbVWv8VapKyCXTVJ4+fRYpAS9TVU4d3YssOYvoRaFDezCsCLz8bOPmrWrM/y5Y0iBXrhxq/LLNoMAAtLTujCtXr6nvZT79twL+9PEglWYTkhsvy8m9AH9cPYM6DVuqMYRcwcHBePXqdYwmVpnSJeE1ZQK+//47carOKvX2IKw2TT13YjQoVjY5AQp4kyNnhyRAAlEkQAEfRWAsbj4ETCnCUqVKibMn9qNE2Wq6dJtmTRuKU2VaoFtPO+TLmxtbA9agao1GKiI/asRg9BMbQOUm1pCrSqUKWLRgFho2scYTIVyTJEmsxKUhAd+lk406BtK2zyCxWfQuataoigL58sB3wZJICfikSZPg9ytn0bOvPQ6KqLwUtyHCOXQO/KaAbUqsy8WB/M/GuiUGio2xHbv0Vvn0Uzxc8c+HDxjl5Ap5as26VYtRtVZj9Z3cPOozyxMVq9XHbWFjyLVp/XKcO38Rk6fOQoYM6fDw4b8baX19vMRbhEQqTSj440fIMf527XdlX0yu6tUqiw276bF1e6B6KxDeZcq5E5PxsG7cEKCAjxvu7JUESCDyBCjgI8+KJc2MgClFmIywd+vcXu8IyEyZMuLUsb0oUqIy3r9/j8GD+qKrKCMF7bYduzFsiJ2egJf4ZHS4tRC7Mh3G0XmCOnfdkICX9fr17qHyuTNlyiBOc7kKJ5eJKvIdVt2wUl86iXSSMY7DRD54ShWVDsk1D30KTYh754o9AxPFKTfyGtC/lzr9RhyNg93iDYDzOA+8e/dOfScXKR1s2ogFTTD27jugFjM9eg/Ui7aXLlUCc72nqo2q0t6GTf89elMuiFxdRqnNwPJknqD9h1Taj7GPsaSAN7NfWo2YQwGvEUfRTBKwYAIU8BbsfK0P3ZQCXuusaL8+AfbpWLsAACAASURBVM4dzoiICFDAc36QAAmYOwEKeHP3EO0LlwBFGCdHdAlw7kSXnGXUo4C3DD9zlCSgZQIU8Fr2noXbThFm4RMgBsPn3IkBPAuoSgFvAU7mEElA4wTMWsBrnC3NJwESIAESIAESIAESIAGjE6CANzpSNkgCJEACJEACJEACJEACsUeAAj722LJlEiABEiABEiABEiABEjA6AQp4oyNlgyRAAiRAAiRAAiRAAiQQewQo4GOPLVsmARIgARIgARIgARIgAaMToIA3OlI2SAIkQAIkQAIkQAIkQAKxR4ACPvbYsmUSIAESIAESIAESIAESMDoBCnijI2WDJEACJKBPQJ47f+rUOcxbuMSoaAoUyIdd2/2RO38po7Zr7MaKFC6ILZtWI1/hssZu2qjtPbh9VdfesBHOWLNuo1HbZ2MkQAIkYCwCZi3ge9l2QbJkyTDHd5Gxxst24hEB/jGeeORMIw9FCsYxjsPRqWsfI7ccfnNFixSCx0QXyH9v37kLT6/ZCNwdpCqYq4CPyGZjgjO2gC9WtDBkm+v9A8I0M02a73HyyB7Ub9wad+7ei/RQkiZNosquXbUYG/x/NisBz+dhpN3IgiRgEQQo4C3CzfFzkBTw8dOvxhiVqQV8qlQpcfRAICZ5zsDGzVtRoVwZLF08B1atOuD69T/MUsAbstkYfghpw9gCvkO7NrBu3Rxt2nUL18zq1Srj6LGT+PLlS5SHsnHdMvhv2kIBH2VyrEACJGAqAhTwpiLNfoxOgALe6EjjTYOmFvBSUNq0bYlW1l10DJ3FGwAZiV++cp0S8Hfu3FNR47JlSuLCpV9gN9ABfz98pMpny5oFk93HomKFcrh37z6GivSN8xcu6drq36cH7Pr1RMJEibBnz344u7rjzZu3+DaFxmOis3gDUBjtOtrinw8fIvSnIZtl5cGD+iJXzhx4+PAxbLt3UmK4WOmq+PTpE1IkTw6XMQ5obtVY/PwZU7xm6Qle2f6Y0cPwUZTdLWxu06qZLoUmoroy0lymdEkEfwiGVdOGePD3Qwwf6YxTp88h808/InDbBqRIkUK9nX3x4oUaY/9BDjh2/BQqVyyPTRuW68ZdqXoD3Lp1R/ezrD/JTXCuWBZvXr+F7wI/+C1d9R9O4Ql4h6ED0bGDNVKK/o8eP4lRTuPx5MnTGP3e5M6VE2OdR2DBwmU4fvJ0uG0xAh8jzKxMAvGOAAV8vHOp5QyIAt5yfB3VkZpawI8fOxoJEyaEi6tHmKbKuZo9W1b0tRuGR48fY57PNCXunVzckDhxYuzZuUml28yc7YuGDeoqMV+uUl28e/cObdu0wBD7fujaoz8ePnqMGV4eeCT+HTPWTU/AO40ainp1a6GldWe8evXaIDJDNocI+KH2dljktxzbtu9CEpFicvrMedW256TxyJ5djmmoWoCsX+2H7r0G4MzZC2qhsi1gDXr0HqTKjx0zQkXMQ3LgI6orherI4faw7TMIJ0+dFQsXW7Ro1gR1GrTQjSmiCLz0g7zu3fwV3wr41SsW4tr13zHBbSqKFyuCAP8VsGrZAVeuXtPjFZaAb9KovlqwyEXaq9dvMN1zIj4EB2PwMEeDrCMqIBczfXt3R3ub1nj56hXmL1yKLdsC1SIp9EUBHyPMrEwC8Y4ABXy8c6nlDIgC3nJ8HdWRhifgZ8+YjGZWjfSaK1i0PIKDPyJP7lwI2q2fU+0730/lshu6JruPw1shtie6Tw1XwIfexNq6pRW6dm6vxHaVyhXg6+2FUuVr4uvXr6r+ThFl9vZZgB2Be+C/dikCtuzAytXr1Xc5cmRDJRGpl/nfIRH4qdO80b1LB5WyI8V9ZC5DNss2ZAS+etXKsG7fXa/JJEmS4Ma1c0pU//7HDfWdixDpyZImhfM4d4x0sFei3n7oaPVd6BQaQ3WlUK1ZvQq6iAVLyHiPHQxEjrwldOkwkUmhkRtSvxXwefPkwv0HD/H+/XvVttxYu3zlWpUuE/oKS8DXqVUdUya5onffwbh4+VckF8I7depUePz4iUHcHdtbw128HQl9dbO1w6HDx/Q+k28QZIS/ciXxr9i/IdOvQi4KeIOYWYAELIoABbxFuTt+DZYCPn7505ijMXUEfsI4RyRIkCDCCHxoAd+0cQMMHNAbja3aolOHtiKtwwXPn/+bDiKvNGnSwG2Sl4h8r8CxQ4Fwcp6IA4eO/geRFPAH9mzBaxERDhbR4HqNW6l0l8hchmyWbUgBX6hgfvQX6T6hL5n2Ie2S4jVk0ZEyZUocPnoctiLqPn2qmxDKf8Nruo+qFlrAG6orhWqNalXQ1fZfAf/Tjz/g/OmDyJmvhFpoySu6Al7yGjFsEKSQl+lAMj3IyWXifzbDhpdCIxdePXt0Ro7s2dQbE0+xcIqMgI+MP+SCR0bhbaxb4pcrV5XPQ1KsZH0K+MhQZBkSsBwCFPCW4+t4N1IK+HjnUqMNyNQCXkZYrds0R+u2XXVjGD5kAO7df4C16zf9ZxNraAEvI7sTXJ1UND709VbkuL//5x9IMSk3xq5e66++TivEfa5cOXDh4mUVgd+3KwA161rBfmBf5MyRXW3s/Pz5s0GWhmyOSMDLHPQ/rp5BnYYt8fTpM11fchEh03dkBD5r5swYPPzf9JLQAt5Q3cgI+HY2rZTYDb3n4NsBhxWBlyfTzPKZr2Mp2a7bsDlSAl6mC30QefnyDYf0gcxb/+GHTOjcra9B1hEVSJc2LeZ4T0W5MqWUHQtFulLovP2QuhTwMcLMyiQQ7whQwMc7l1rOgCjgLcfXUR2pqQW8TKU4fmgXXCdOwaaAbShVsjhWLZ8vRHmXME+hCS3gZQ70fhFFl6kci5asUNH3AWLD6sLFy9UCQEZkB9r1RscuvdWGySkermqD6ignV70ceCmM5QbPvUEHMNHDyyAyQzZHJODld74+XkiUMBFGOroi+ONHdOlkg9+u/Y6D4k1B4UIFsHXzGnTraYcrV65h1IjBejnwEdWNjICvUqkCFi2YhYZNrPFELCCSJEmsy/sPnQNfrVZj/HXztoq2yzckctHRs4+9epshj6KUx0W6CVZykSWvkLoybUn6US6a5BsG+Z/9wD6oX7c2uok3Ay/FImX40AEoU6oE2nfuZZB1RAXkxtpWLZpi5ZoNEe5doICPEWZWJoF4R4ACPt651HIGRAFvOb6O6khNLeClfVIQynPgpXi9K06ScZ88XYlpeX17DnxoAS+/l6kcHiKNRgrCD0KcSzEn009C0lMG9O8FeRKNUKHiRJd9Is/cQ21w/fYUGpnusmPLOnUqy67d+wxii8hmQwJeHkPp6jIKDevXUSfCBO0/pNI+Xrx8qfqVaS5S5CYSJ+dsFDnm3bt21G1ijahuZAS8bN9rygS0FifbyNNqHJ0nYPPP2/9zCk0IgM7d+yFo30FI7i5ODmoz7pUrvyF9+nRKzMs9BPIK/YecQurOFfsg5N4GudlYnizUvFljpBLpQvINiDyF5uat2wY5G6MABbwxKLINEog/BCjg448vLW4kFPAW5/JIDzguBHykjWNBEogGAQr4aEBjFRKIxwQo4OOxc+P70Cjg47uHoz8+Cvjos2NN8yRAAW+efqFVJBBXBCjg44o8+40xAQr4GCOMtw1QwMdb11rswCjgLdb1HDgJhEnArAU8fUYCJEACJEACJEACJEACJKBPgAKeM4IESIAESIAESIAESIAENESAAl5DzqKpJEACJEACJEACJEACJEABzzlAAiRAAiRAAiRAAiRAAhoiQAGvIWfRVBIgARIgARIgARIgARKggOccIAESIAESIAESIAESIAENEaCA15CzaCoJkAAJkAAJkAAJkAAJUMBzDpAACZAACZAACZAACZCAhgiYtYDnH67Q0EyKA1P5h5ziALpGujS3P+TkPXMKWjZvgk+fP+P9+/c4euwUXMa54++HjyJFNE2a79GrRxdMmzknUuVju1DOnNmxa5s/ChWvqOuqR7dOqFypPPr0HxLb3cfb9i+eOYSS5WrE2/FxYCRAAsYjQAFvPJZsycQEKOBNDFxD3ZmjgP/jzxuY5T0fKVOmhKvLKOQSItimo22kqErBfOLwbmTOUThS5WO7kLRnz45NKFC0vK4r2+5SwFdA736DY7v7eNs+BXy8dS0HRgJGJ0ABb3SkbNBUBCjgTUVae/1ERsAXyJ8X/fvaYtWaDThz9kKsDlJG4EMEvOyocKEC2L5lHfIUKK36zZY1Cya7j0XFCuVw7959DB3hjPMXLqnvdm5dj+zZsyFD+nR49Oix+sxv2Sq1GJBC+sj+Hciep7jO/l8uHEOX7v109detWoydu4JQo3pl1K5VXUT/T6Jzt76QjPwWeGPJ8tUYZNcbX79+hdcMHyxbsdYgC9nv3p2bkb9IOV3Znj06o1LF8joBb9WkAUYMG4SsYmxXf7sOF1cPXLh4WZVPkTw5XMY4oLlVY3z69BlTvGZhzbqNurYGD+orFjg58PDhY8iFwZcvX1CsdFVR9pNB27RcgAJey96j7SRgWgIU8Kblzd6MSIAC3ogw41lTEQn4SkIk2/XrifLlS2Pjpq2YLtJSnj1/EasEQgv477//DuPHjkaWzD+hXaeeSJw4Mfbs3ITA3UGYOdsXDRvUVWK+XKW6ePfunbIrvAh8ZAV88eJF4OYxDZd/uaJEsBTUktHewM0Y7+aJJWJBUK5saaxZsQhlK9XGkydPI+Qh+923KwB5C5XVE/AyhaZX38HIkCE9zp08gNY2XZVol+K+d8+uKF+5rirvOWm8WJRkRV+7oWrxsn61H7r3GqBbSEkBP9TeDov8lmPb9l1IkjQJTp85H6s+MofGKeDNwQu0gQS0QYACXht+opVhEKCA57QIj0B4An6z/wqkEiksfktX4ectO/D+n390TeTJnQtBuwP0mvSd7wdPr9nqs9kzJqOZVSO97wuKFJLg4I8GHRE6Bz5Z0qQ4ePgYBgxyUAuHKpUrwNfbC6XK11RRcHnt3LYB3j4LsCNwj1EE/MlTZzF91lw9OyWjrZtX64nwMyf2wX7IaBw7ccqggN+/+2fkKVhGV07uWZICvmcfe6RLmxZnTgTBfqgj9gTtV1F2uWC5K94uJEmSBDeunUOdBi3w+x83VH2XMSMguTiLfQHykgK+etXKsG7f3SDb0AVi6sPTx4KQMVMGXZPyLUjrtl3Vzx3bW8N9orOePd1s7XBI+FJeMakb0igFfJTczcIkYNEEKOAt2v3aHjwFvLb9F5vWhyfgnR2Ho1VLKwSKlJKVq9erSLQprtAR+GGD7VBYiOeQXPFOHdpikpsLnod6C5AmTRq4TfISEegVRhHw23bswopV6/8j4LdsWo18hf8XRT92KBBOzhNx4NBRgwL+wN6tyJ2/lK6cjLBXqlhOCXh5lS5VQkTR+6NcuVI4c+aC2IDrg4uXfkXuXDkh+3n8+IluwSL3BRw+ehy2vQfpBHyhgvnRf6CDKdxjNn1QwJuNK2gICZg9AQp4s3cRDQyPAAU850Z4BCJKoZEnunTr0l6d6nL7zl3Y2Y/A7dt3YxVmaAEv00tOHw9CnfotcPPWbdQReekTXJ3Q0rqzng1v37zVvSGQ6Sanju5FlpxFdKJXFs6YMQMunT2scuA/ixNu5BVWDryxBfx336XGtV9OoXCJSnj58pXq18XJAalTp8YoJ1ekT5cWaUUU/sZfN5FUpL+0a9sKzo4OKo9dpgz9cfUM6jRsiadPn+nGHBwcjFevXlPA8xSaWP1dZOMkEF8IUMDHF09a4Dgo4C3Q6ZEccmQ2sSZLlhQ21i1xSuRWX7v2eyRbjl6xbzexzvTyEOL8PRxFtFtu6Ny/ZwuWr1yLRUtWQEbfB4gc/YWLl+Pe/QeqQymCf79yFj372uOgiI7LPPoQ8Xvh9CEMGjoKh48cR+2a1bBy2XxYteygt4nV2AJe2rRm5SK14XaC+1TkzZMbK5bOUzntcpNsubKlsMzPF21EDvxvgm3NGlXFhtnZ4tjJSvj48SN8fbyQKGEijHR0RbD4uUsnG1VOjk1eMoWGEfjozTXWIgESsAwCFPCW4ed4OUoK+HjpVqMMKjIC3igdRbKRbwV80SKFVP552Yp18PzFC3XiiodIoykj0k4+fPiAleJkHK/pPnrRdplqM8ZxGFKmSKnSf0LyxWUE32OiC96J8+WPHD2B+vVqwW7QiFgX8PJUnEluY5U4f/L0qdiAOw8bNv6sI9KhXRsM6N8LP/6QSb3pcPPwwv6DR9T3qVL9e5Rmw/p1kCxZMgTtP6RSd168fEkBzwh8JH+rWIwELJsABbxl+1/To6eA17T7YtV4cxPwsTpYNh5vCDAHPt64kgMhgVgnQAEf64jZQWwRoICPLbLab5cCXvs+tMQRUMBbotc5ZhKIHgEK+OhxYy0zIEABbwZOMFMTKODN1DE0K0ICFPCcICRAApElYNYCPrKDYDkSIAESIAESIAESIAESsBQCFPCW4mmOkwRIgARIgARIgARIIF4QoICPF27kIEiABEiABEiABEiABCyFAAW8pXia4yQBEiABEiABEiABEogXBCjg44UbOQgSIAESIAESIAESIAFLIUABbyme5jhJgARIgARIgARIgATiBQEK+HjhRg6CBEiABEiABEiABEjAUghQwMeRp+UZ5qdOncO8hUviyAJ2SwIkQAIkQAIkQAIkoEUCZi3ge9l2QbJkyTDHd5FZsD17cj8yZsiAL1+/4MWLl9j883Z4TJ6OT58+Rdm+sAR8mjTf4+SRPajfuDXu3L0X5TajW6Fxw3pqPMdPno5uE3FSj3/IKU6wa6JT/iEnTbgpzozkvSPO0LNjEiABIxGggI8CSCng+w0YhtNnziNL5p+wcN5M7Nl7ADO950WhlX+LhheBr16tMo4eO4kvX75Euc3oVvCeOQU3b97GtJlzottEnNTjQzhOsGuiUwp4TbgpzozkvSPO0LNjEiABIxHQvICvWaMqBvTrCZuOtkZCEn4zoQW8LNWzR2fUqV0Dnbr2UZWqVKoA17GjkC9vbhHNPoPBwxzx5MlT9V2GDOkxZ5YnKpQvoxYAqVOnwtZtu1QKTeWK5bFpw3Jdx5WqN8CtW3f0DLlz4zK69ugPp9HDULBAPnhO84bP3IWqTLasWTDZfSwqViiHe/fuY+gIZ5y/cElXv3+fHrATjBImSoQ9e/bD2dUdb968RTOrRnBzdcL3IvL/+dNnvH37VtUpX6UugoM/xjrPmHbAh3BMCcbf+hTw8de3xhgZ7x3GoMg2SIAE4pKAJgV8IiFEWzRrjAH9eyF1qlRYsXq9TszGJszQAj5HjmxYMHcmdu7ag1ne8yF/DgoMgJ29A44cOQHHUUNRIH9etO/cS5m0eMFsfP78BaOdXJE9e1asXrEI3j4LdDnwCRMmVOXu3fwV4Qn43/+4gUmeM/Dw4WM8e/Ycd4VYT5w4Mfbs3ITA3UGYOdsXDRvUVWK+XKW6ePfuHdq2aYEh9v2U+H/46DFmeHngkfh3zFg3HSpG4GNz1rDtuCBAAR8X1LXTJwW8dnxFS0mABMImoDkBnz1bVhWt/vXX37BsxRocOHQUX79+1Y0uT+5cCNodoDda3/l+8PSarT6bPWOyijyHvgoWLR+piHNIDrzsL1mypCo3313kwMufHYYNRP68edBXpNjIK1WqlLj+62kULVkFb4WQ/uv6eVSp2Qi3b99V34eXQvPg9tVwBXzb9j1w4tQZPdurVK4AX28vlCpfU8dh57YNanGwI3AP/NcuRcCWHVgpFjnykguNSiJSv97/f4yiK+BPHwtCxkwZdPbIqH/rtl3Vzx3bW8N9orOerd1s7XDo8DH1WUR1DfkwpFE+hHlbC48ABTznRkQEeO/g/CABEtA6Ac0J+PTp0mKyhyuKFS2ENes2Ye36TXj8+IlJ/BA6Ai+F8fade7Bk2SrV95zZU9GoQR2VmhJyZcqUEfUatVIbRM+c2IesuYrqRHZ0BHytes3w542bemPt1KEtJrm54PnzF7rP06RJA7dJXljktwLHDgXCyXmiWuiEd0VXwJsEegSd8CEc1x4w3/4p4M3XN+ZgGe8d5uAF2kACJBATApoT8CGDzZUzB/r3tUWbVs2EOD2CXn0Hx4RDpOqGFvANhVifMNYRlWs0VBtOnR2HqxNq3CZP02tLCmuZHnPz9wuoVK2B7nQZYwn4OrWqY4LIY29p3Vmv37diIfH+n3+wcd0ybNy8FavX+qvv0wpxnytXDly4eFlXftb0SSodZ6rIq9fSxYewlrxlWlsp4E3LW2u98d6hNY/RXhIggW8JaFbAhwwkY8YM6NWjCyZPnRnr3g0t4BMkSIDjh3aJFJpp2Lp9FwoVzI/N/ivEKTXDcfjIcZX/3rmjDcaOn6QE/qL5s/Dp4yc4imh4njy5sGKpL2Z7h50DX61WY/wlToUJfRKN3MQaVgQ+RfLk2L9nC5avXItFS1ZARt/lpt6Fi5fj3v0HsLFuiYF2vdGxS2+1oXaKeHvxz4cPGCVy8UMuh6EDIVNxuvToh2RJk+K1EP8fP3ITa6xPKHYQawQo4GMNbbxomAI+XriRgyABiyageQFvSu99ewqNPKdevgFo3MxGmSFPxJGR+Dy5c+L+g4fipJjZ4qSZQPVdhvTpMFsc11ihXBl1QsxnIeoPHjwa5ik0IWPq3L0fgvYdVD+GJ+Dld/JthIdIoylTqgQ+CHG+cs0GeE330aXryM2+8iQaiEXH7j374DzOQ21wDblkWtJi8YelypYuicdC5Nt06PGfVB1Tco5sX3wIR5aU5ZWjgLc8n0dlxLx3RIUWy5IACZgjAQp4c/QKbYoUAT6EI4XJIgtRwFuk2yM9aN47Io2KBUmABMyUAAW8mTqGZhkmwIewYUaWWoIC3lI9H7lx894ROU4sRQIkYL4EKODN1ze0zAABPoQ5RcIjQAHPuRERAd47OD9IgAS0TsCsBbzW4dJ+EiABEiABEiABEiABEjA2AQp4YxNleyRAAiRAAiRAAiRAAiQQiwQo4GMRLpsmARIgARIgARIgARIgAWMToIA3NlG2RwIkQAIkQAIkQAIkQAKxSIACPhbhsmkSIAESIAESIAESIAESMDYBCnhjE2V7JEACJEACJEACJEACJBCLBCjgYxEumyYBEiABEiABEiABEiABYxOggDc2UbZHAiRAAiRAAiRAAiRAArFIwKwFfC/bLkiWLBnm+C6KRQRsWqsE+MdYtOq52Lebf8gp9hlruQfeO7TsPdpOAiQgCVDAcx5olgAfwpp1XawbTgEf64g13QHvHZp2H40nARKggOcc0DIBPoS17L3YtZ0CPnb5ar113ju07kHaTwIkwAg854BmCfAhrFnXxbrhFPCxjljTHfDeoWn30XgSIAFG4DkHtEyAD2Etey92baeAj12+Wm+d9w6te5D2kwAJMALPOaBZAnwIa9Z1sW44BXysI9Z0B7x3aNp9NJ4ESIAReM4BLRPgQ1jL3otd2yngY5ev1lvnvUPrHqT9JEACjMBzDmiWAB/CmnVdrBtOAR/riDXdAe8dmnYfjScBEmAEnnNAywT4ENay92LXdgr42OWr9dZ579C6B2k/CZAAI/CcA5olwIewZl0X64ZTwMc6Yk13wHuHpt1H40mABBiB5xzQMgE+hLXsvdi1nQI+dvlqvXXeO7TuQdpPAiTACDzngGYJ8CGsWdfFuuEU8LGOWNMd8N6haffReBIgAXOPwNNDJEACJEACJEACJEACJEAC+gTMOgJPZ5EACZAACZAACZAACZAACVDAcw6QAAmQAAmQAAmQAAmQgGYJMAKvWdfRcBIgARIgARIgARIgAUskQAFviV7nmEmABEiABEiABEiABDRLgAJes66j4SRAAiRAAiRAAiRAApZIgALeEr3OMZMACZAACZAACZAACWiWAAW8Zl33P8Mf3L6q+2HYCGesWbcxHoyKQyABEiABEiABEiABEgiLgFkL+F62XZAsWTLM8V1kEu9dOH0IDqPHYm/QAV1/O7eux6o1/li5er3uM6dRQ5E2bVqMdBxnErvSpPkenh6uqFmjKl69eq0E+ozZvrq+kyZNov7/2lWLscH/Zwr4WPYK/whMLAPWePMXzxxCyXI1ND4Kmh8bBEz9TIuNMbBNEiAB8yBAAR/KD1OESP7y9Qscx0xQn2bMmAEXTh9EmYq18ejRY13J7NmzImmSJPjzxk2TeHHl0nm4d/9vuE6YjB9+zITli+diod8KvUWFNGTjumXw37SFAj6WvUIBH8uANd48BbzGHRiL5lPAxyJcNk0CFkaAAj6Uw2vXrAbPyeNRvnJd9Wk7m1bo3MEGzVp1UD9LgVylcgX1/6VQHjRklN50qVKpAlzHjkK+vLlx/OQZDB7miCdPnmKqaPPMuQtYt34zFi+YjZWr1mP/wSPYsWUdHJ0n4OKlX8OddjlyZMOBvVtRtGQVvH//XpWzatIAdWrXgEyXCX2FJeCTiIXGOOeRok5DJE6SGDsD98DJxQ0fP35UVQsXKgD3Cc4oUbwo/n74CLO852HDxp91zToMHYiOHayRMkUKHD1+EqOcxqsxyat8udKYPWMyPCZPxziXUciYIQNsOvbAqdPnkDBhQowcbo9uXdsjgfjfavHWQJb79OmTqiv/1P30qe4oVDA//vjzBoaPdNZx+OXCMRw/cRqVK5XHyVNnkCd3LvEmJinatu8hFjIP8P3332Gy+zjUqlkVH4M/YmPANkx0n4qvX7/G6Ne3TatmKFumJBYuXoG/bt4Kty0K+BhhjveVKeDjvYujPUAK+GijY0USIIFvCFDAhwIixe6vQjxaCcF+/fofWDR/Fs6dv4S58xarUgkSCCkq/hs2xA45c2TXE/BSaAcFBsDO3gFHjpyAo0izKZA/L9p37oUunWyQN09uuE6cgnOnDmDdhs2YMnUWfr14HKXL10CwEKHhXQ0b1FFCuG7DlgYnb1gCfqBdb9StUwOdu/VFCiHC16/2WtXFfAAAIABJREFUEylBG7B4yUrV3r7dP4u0mwAsWLwcZUqXwDrxfe36zXHr1h00aVQfLmMc0Mq6C169foPpnhPxIThYLUxCBPym9cux/8ARzJm3SIjzz7h2/Xe8efMWA/r3QrOmjdC9px2+iv/5LfBG0L5DmD5rLlKlSokTh3djkudMbNq8Fc2sGmH8uNGoVK2BShGSAr5T197ImiWLWnxUqt4Avt5eahG0SLx5cBs/Bj/++APsh45GurRpVOqQ7F8ukGJyZc+WFf379kCL5k1xWixC5i9cKhZip//TJAV8TCjH/7oU8PHfx9EdIQV8dMmxHgmQwLcENCngTx8LQsZMGXRjOX/hElq37ap+ltHaoN0BeuP0ne8HT6/ZkfL+PJ9puPTLFRGFXY4rQmA3srL+T6rM8CEDkCtXDj0B7zBsIPLnzYO+A4apfqRIvf7raRU5l+J+zOhhGDPWDRNcnZBc5PUPHDwSfgt9VPsRXc2bNRai0haNrdoatD8sAZ/5px8RLKLtT58+U/VHjxiCH37IqIvey7cAR46eEAJ4MV6+fIWfhDB+/uIFPnwIRp1a1TFlkit69x2Mi5d/RfLkyZE6dSo8fvxEJ+DXrlyEYqWq4v0//+jZd+xQIFzGeSBo/yH1edUqFTHTywPlq9RF65ZW6N2zKxo3s9HV2ey/AmvXbVKLGyngW7TuiMyZf1ICvn7j1iri/uDvv8UbgvlwdhyOwiKCP1q8Dbhz954Q8Wnx+ctnJf4NXfKNgVwwhL4KFi2vt4iS0f5GDeuhe9cO6s1DI8E+dHSfAt4QZcv+ngLesv0f0egp4Dk3SIAEjEVAkwLeWIMPq50WzZugW+f2apOoTC2pUafpf4qFJeDnzJ6KRiJaLqPPIVemTBlRr1Er/P7HDRw/vAszZvkKEZwM7W1aY+p0b9StXVOkpLhGOJxGDepixPBB0Y7Af/ddajiOHIIK5cuqtwcZM6RXEfMhDk6qXynY5eKjQb3auHvvPuaJqPOWrTt1Nkmx3bNHZ+TIng2Bu4PgOc1bT8AvmjcrzA17t/64JMbeUo1dXlmzZMapY3uRLXcxyLcCxYoU0i125PczvNxx794DeM3wMSjg5abdQXZ90LqVlRqT/8YtmOUzH58/fzbK1ChVophIG2qrmGzbsQvO49z12qWANwrmeNsIBXy8dW2MB0YBH2OEbIAESOD/CVDAfzMVZIT50tnD2Lptl8oJn+Q5I1ICXkaFZQ642+RpeuWfP3+hhGXgNn+1EdZz2mx069Ie36VOjUNHjmP1Wv8IJ2OunDmwb8/PKFqisi7KXb9eLch8fZnLHvoKKwIvhfGXL19EWZH+IqLqcvEhU0WkgJdCuFDBArgkouvyqlihLJaJDbIy7efCxcuQm3VlHWl32jRpMNZ5hIjeZ1LpOPKSOfDhCXi5YHFynqhy/eVVuWJ5zJ45We0vkLnmtt07oWmL9jrzpe3rNwaoNBhDEXiZt3/r9l28e/cOko+vjxe2bt+lS3WK7m93mdIl4TVlgsqx91u6Sm0SDiuqTwEfXcKWUY8C3jL8HJ1RUsBHhxrrkAAJhEWAAj4MKqtXLEQtcWRjk+btlJANuULnwOfOlVOXQiMFstyMKdNA+g0YjsNCmMv8984dbTB2/CQloD0njVcR+lLla6JVi6aQJ960aNMJv175zeDMXCPSVG6KTZXjxCk06dKlxerlC1UOe4j4lxtG5eW/dik2iQ2d8nOZ8iH/W7lsPq6IPjymzFCn6iwRaTtyg6bMH5epPBfFYkVuTA3Ysl0J9q2b1qBXP3ucOXsB9gP7oH7d2uhm2x8vRXrK8KEDUKZUCSXwDQl4Wbdh/Troaity4MX4F4nNu3Jj6lQRwZdvBY6LHPhxgk3Alh0i176e2jxcuVpDvHj50qCAl2k78gSg8W5TxCIkKRaKtwDHT5zCbJ8FBllGVKB6tcrIkD69WAwERhjNp4CPEeZ4X5kCPt67ONoDpICPNjpWJAES+IYABXwYU6Jr53YYNniAENv6ZzmHPoUmpNqFS7/o8tPlOe0yEp8nd07cf/BQRdu3bgtURTuJlIzGQqjK6LVMJzl6MBD5CpfVncoS0cyUOd5TPMahevXKePv2HZatWAvvOf8Tq6H/kFNIO3NF3r88maWgWFjMFFH4zD/9pHLI79y5h0wiB15uTA0R4WPHjFQLjlevX8NPLAx8FyxR3yVOnFiNR+bhp0qZUi1mpNi/eeu2QQGfKFEilbrTpnVzdQrNz1t3wG3SNN3pN8WLFcEkNxfRbz4hxv8S+wPcxYbhi6pdQxF4mfbjNmEMKomovlxU7RKpPTLa/8+HDyb5BaeANwlmzXZCAa9Z18W64RTwsY6YHZCAxRCggLcYV3OgxiJAAW8skvGzHQr4+OlXY4yKAt4YFNkGCZCAJEABz3lAAlEkQAEfRWAWVpwC3sIcHoXhUsBHARaLkgAJREiAAp4ThASiSIACPorALKw4BbyFOTwKw6WAjwIsFiUBEtCugKfvSIAESIAESIAESIAESIAE9AmYdQSeziIBEiABEiABEiABEiABEqCA5xwgARIgARIgARIgARIgAc0SYARes66j4SRAAiRAAiRAAiRAApZIgALeEr3OMZMACZAACZAACZAACWiWAAW8Zl1Hw0mABEiABEiABEiABCyRAAW8JXqdYyYBEiABEiABEiABEtAsAQp4zbqOhpMACZAACZAACZAACVgiAQp4S/Q6x6wpAvIPR506dQ7zFi4xut0Pbl/VtTlshDPWrNto9D7YIAmQAAmQAAmQgHEJmLWA51+tM66z41trpv6LqPv3bEGhgvn1MAZs2Y7+Ax0ihbZY0cIoUrgg1vsHRKp8SKGYCviRDvbo1N4aiRIlQtC+Qxg7YRJevnylmk+aNIn6d+2qxdjg/zMFfJQ8E/XCvKdFnZkl1eBf8bUkb3OsJBAzAhTwMePH2nFIIC4E/OSpM7Fr975ojbpDuzawbt0cbdp1i1L9mAh4u762aNqkAWz7DML79/9g6qTx+PzlC+wG6S86Nq5bBv9NWyjgo+SZqBemgI86M0uqQQFvSd7mWEkgZgQo4GPGj7XjkIC5CfgqlSrAdewo5MubG8dPnsHgYY548uQpMv/0IwK3bUCKFCmQLFkyvHjxQlHrL0T0seOn1P/PkSMbZk7zQKmSxXHz5m14TJmBvUEH1HdynHfu3FPR+7JlSuLCpV9gJ6L+fz98ZJD+mRP7lB1Hj51UZbNlzYLFC2ajaYv2+PTpk65+WAI+SZIkGOc8ElZNGiJxksTYGbgHTi5u+Pjxo6pXuFABuE9wRoniRZUts7znYcPGn3VtWomFw4hhg5BV9Hn1t+twcfXAhYuXdd/fuXEZXXv0h9PoYShYIB88p3nDZ+5C9X3zZo3h4uSAjBkz4NChYxg+ykWxlFe6tGkxdcp41KldA8+fv8CUqbN0bzV+uXAMx0+cRuVK5XHy1BnkyZ1LME+Ktu174N79B/j+++8w2X0catWsio/BH7ExYBsmuk/F169fDbKMqEDuXDkx1nkEFixcJnx/OtyiFPAxwhzvK1PAx3sXc4AkYDQCFPBGQ8mGTE3AnAS8FOBBgQGws3fAkSMn4DhqKArkz4v2nXvpsIQXgZepLQeDtmHdhs1YuGgZypYthcXzZ6N2/eZ48PdDJeCzZ8uKvnbD8OjxY8zzmYbbd+4qMR3R9d13qXH919MoVLyiLmUmvPJhCfiBdr1Rt04NdO7WVy0+1q/2w6o1G7B4yUrVzL7dP4u0mwAsWLwcZUqXwDrxvbT51q07yJAhPc6dPIDWNl2VaO/ZozN69+yK8pXr6gn43/+4gUmeM/Dw4WM8e/Ycd+/dF22VxMpl89Cle/9/hf8YBxTIl1f35mLV8gV48OBvjJswGfnF5yuXzUfvvoOVcJYCvlPX3siaJYtafFSq3gC+3l44c+4CFvmtgNv4Mfjxxx9gP3S0WAikUalDc+Ytwrr1m2M0fVMkT46+vbujvU1rvHz1CvMXLsWWbYF6iyTZAQV8jDDH+8oU8PHexRwgCRiNAAW80VCyIVMTCEvAy4hr0G79HHPf+X7w9JqtzJs9YzKaWTXSM7Vg0fIIFtFYQ1dYOfA585VQdR2GDUT+vHnQd8Aw1UyqVCmVeC5asgpevHypPgtPwFeqUA5zfbxQpkItnQlt27TAqTPnlBj+NoWmdUsrdO3cHi2tO0dosoxeXz53BHkKlhHpM+8jLBuWgJdvDoJFtP3p02eq7ugRQ/DDDxkhN7vKa8eWdThy9IQQwIvVAuEnIYyfi7cLHz4Eqyj5mRNBQig7Yk/QfiFkPyNL5p+UQA+5ZAReRsZPiEh56MtrygTV3kQPL/WxXDxcuXQcNWo3VdF/+VZBLkrevHmrvh8xfBCyCcE+eLijEvAtWndEZtGXFPD1G7dWEfcHf/8t3hDMh7PjcBQWbzJGO43Hnbv3lJ2fv3zGq1evDbk/0nOncsXy6NjBWr0F6Ni1D65f/0PXNgW8QcwWXYAC3qLdz8GTQJQIUMBHCRcLmxMBc4rAz5k9FY0a1NGJSskpU6aMqNeoFa5cvaawhSfgpSC37d4JVi07hIn3WwHftHEDDBzQG42t2kboDpkucu2XU9GOwMsIvuPIIahQviwSJEiAjCKqvv/AEQxxcFL9SsEuFy4N6tVWwnyejDpv3amzqXSpEhhq3x/lypXCmTMXMG2mDy5e+lVPwNeq1wx/3ripN441KxchcNdeLFuxVvf5ySN7MNRhDD4EB2PpIh8UL1NN951c7Ei2MtpvSMDLTbuD7PqgdSsrNSb/jVswy2c+Pn/+bJSpLVOUZBTexrolfrlyFU7OE/VSnSjgjYI53jZCAR9vXcuBkYDRCVDAGx0pGzQVAXMS8DKymzFDBrhNnqY3fJmjHSIO29m0UuKulXUXvTIyYusz2xNlK9bWfV6yRFGV9/5M1I+ugJeNnTt1AAMHj9Tl2kvRLaP9Nh1sDebAz/Byxxex4dXJZaKKqg8fMkCl8kgBL4VwoYIFcOnyv4K8YoWyWLZ4rkoZkikz6dOlRVoR3b7x101Vtl3bViL67YBipUXu+f/n0MsIfFgCfprnRJVO4z55umpb5rBfvXwSNeta4dPHTzh1bC8KFquId+/eqe+lXTKFSeb6GxLwMm//1u27qm6unDngK1hs3b4Lc8VbhJhcMpI/x3sqypUppfLxF/otV29Pvr0o4GNCOf7XpYCP/z7mCEnAWAQo4I1Fku2YnIA5CXh5vORm/xXoN2A4Dh85rvLfO3e0wdjxk5QIlpfc5LpowSw0bGKNJyItJYnYGCpTNxInTixy4Ldi+cp1Kr9cHjcp87obNbVWke2YCPhBA/qoCHn3XgPwVqScTBXpKTLyLEW9vBImTKj+9V+7FJvEhs7Va/3Vhk75n7ThypXf1IZamY6zZKEP/rp5S+WPJxebcS+ePYxRIhVFHqWZPXtWbN20Br362ePM2QsoJ/L4l/n5oo2Iiv927XfUrFEVfmLzbKHilQwK+PLlSmPJojlo36knfv/jT4wWbwHk5t6Qhc86kbcuFwauE6eoTaprRcTezn6E2qhrSMDLsjLiP95tilhYJMXCebPEptdTmO2zIEbzV6YbtWrRFCvFHoGI0nEo4GOEOd5XpoCP9y7mAEnAaAQo4I2Gkg2ZmoA5CXg5dilSZSQ+T+6cuP/goThVZTa2io2MoS+Z3926VTMEi4i2o/MEbP55u/o6Z87smDVtkjjRpQhuisitm8j/3nfgsPouJgJeinV5DnxHkWIiN8vuDToIl/EeeP36jWo79B9yCrFzrtgzIE9mKSgWJTNFFD7zTz+pHHL5RiCTyIEPEdJSaI8dM1ItVl69fg0/sfjwXfC/PzYl01oG9O+FH3/IpDbdyjHtP3hEhyO8CLws0EYwGjrYTmyGTYeTJ89ipJMrHj16rOpmSJ8OUya5okrlCuJEn5fwnrNQd/ylIQEv30C4TRiDSuKth2Sza3eQSnP558MHk0xfCniTYNZsJxTwmnUdDScBkxOggDc5cnZoLAKmFvDGspvtWC4BCnjL9X1kRk4BHxlKLEMCJCAJUMBzHmiWAAW8Zl1nsYZTwFus6yM1cAr4SGFiIRIgAQp4zgEtE6CA17L3LNN2CnjL9HtkR00BH1lSLEcCJGDWEXi6hwRIgARIgARIgARIgARIQJ8ABTxnBAmQAAmQAAmQAAmQAAloiAAFvIacRVNJgARIgARIgARIgARIgAKec4AESIAESIAESIAESIAENESAAl5DzqKpJEACJEACJEACJEACJEABzzlAAiRAAiRAAiRAAiRAAhoiQAGvIWfRVBIgARIgARIgARIgARKggOccIAESIAES+A+ByhXLY9OG5brPK1VvgFu37pAUCZAACZCAGRAwawHPP3piBjPEjE3gH3IyY+fEsWlFChfEGMfh6NS1j8ksKVqkEDwmukD++9u163Ae54ELFy+brP/odBTa5tt37sLTazYCdwfpmkqaNIn6/7f+uAQK+OgQjlod/iGnqPFiaRKwZAIU8JbsfY2PnQJe4w6MRfNNLeC/+y41jh7YiZne87AzcC/q1qkJp9FDUa1mYzx7/iIWRxr9plOlSilsDsQkzxnYuHkrKpQrg6WL58CqVQdcv/6HXsMPbl+lgI8+6kjXpICPNCoWJAGLJ0ABb/FTQLsAKOC167vYttzUAr57lw5o2LAuOnTupRuanJ+nTp3DvIVL4D1zCv748wZmec9X33fv2hH169XSvSHIljULJruPRcUK5XDv3n0MHeGM8xcu6dpat2oxdu4KQo3qlVG7VnUcPXYSnbv1xQwvdyRMmBCDhznqynpNmYCkSZPCfujoCDF3aNcGNm1bopV1F105Z/HWQkbil69cZ1DAZ/7pR0xyEzZXLIs3r9/Cd4Ef/Jau0tWzatIAI4YNQlYxtqu/XYeL6//eSHz//XdivONQq2ZVfAz+iI0B2zDRfSq+fv2q6g8e1Be5cubAw4ePYdu9E758+YJipavi06dPSJc2LaZOGY86tWvguVgcTZk6C+v9A3T9Nm/WGC5ODsiYMQMOHTqG4aNc8OTJU8W8Uwdr1VaGDOkF38soX7Y0Vq5ZD6/pPqp+4UIF4D7BGSWKF8XfDx8Jf83Dho0/x3i6jnUeiadPn2Hl6vV4+fJVuO1RwMcYNRsgAYshQAFvMa6OfwOlgI9/PjXWiEwt4KWQvnv3PqbNnKMbwqABfZQgtBvkEKGAT5w4Mfbs3KRSV2bO9kXDBnWVmC9XqS7evXun2pMCvnjxInDzmIbLv1xRQlaKYik0AzauRKlyNfDq1WskS5YUl84eQadufXDm7IUIcY4fO1qJfymsDV1hReBXr1iIa9d/xwS3qSherAgC/FfAqmUHXLl6TQnkcycPoLVNV5VG1LNHZ/Tu2RXlK9dVXbmNH4Mff/xBLTLSpU2DtWJ8c+Ytwrr1m3UCfqi9HRb5Lce27buQRKTynD5zXn23avkCPHjwN8ZNmIz8+fJi5bL56N13MI6fPI0ypUuKn+ehS/f+/y4axjiggCjTpl03JeDr1q6OLj36Y9/unzF/0VKcFYy2BaxFoeIVVdvy8w1iMbBg8XLRVgmsW+2H2vWbxzj3v0L5MujTqxuqVamETQFbsXDxCvx189Z/sFPAG5qJ/J4ESCCEAAU854JmCVDAa9Z1sW54eAJ+9ozJaGbVSK//gkXLI1hEgfPkzoWg3f+L5MpCvvP9VF64oWuB70ycP39RRKGX6Ir26NYJtWtWQ1fb/hEK+CqVK8DX2wulytfURaB3btsAb58F2BG4R7UnBfzJU2cxfdbc/5iyLWCNSIHZhiXLVqFF8yYYPLAv6jRoYchkFQF/KxYIMvJt6ApLwOfNkwv3HzzE+/fvVfUtm1aLyP1a+G/aoqLkZ04ECYHuiD1B+8WC4zOyZP4Jd8XbBXnJSH9hsU9htNN43Ll7T5X//OWzWoTIS0bgq1etDOv23fVM+0mI/jMn9inB/ebNW/XdiOGDkC1LFgwe7gj59kFGuCd6eKnvUqRIgSuXjqNG7aYqralihTLoP9BBLDZWqjcGZ89dxPlTB5A9T3FVfseWdThy9IRYTCxW7cj+nr94gQ8fgg0hwuljQciYKYOunHyD0rptV7166dOlRZvWzcViogP2Hzgi9km4631PAW8QMwuQAAn8PwEKeE4FzRKggNes62LdcFNH4Gd6eajUk9ACe6Bdb0g7DEXgO3VoK1JRXFQ6SMiVJk0auE3yEhHoFeojKeC37diFFavW/4ddm1bNYNevJ+o2bKmi0Xv27seyFWsNMp4wzhEJEiSIdgS+QIF8KkVGCnmZliJTXpxcJurSWUqXKoGh9v1RrlwpnDlzQbyd8MHFS78qu+Tm2EF2fdC6lZWywX/jFszymY/Pnz+r76WAL1QwvxLboa+yZUph6SIfFC9TTfdx2zYtINOBZLR/zcpFCNy1V2/8J4/swVCHMZD2GhLwUrA7DBuIBvVqq8XGvIVLsWXrToMsI1MgUaJEYhFRA53at1VvZuR+idVr/SngIwOPZUiABP5DgAKek0KzBCjgNeu6WDfc1AJeRtvr1a2pd+rNovmzVNrHfCECZbT76bNnmDrNW409dA58HZHTPsHVCS2tO+txeSsizO//+ceggJdi+OyJ/SrX23vGFJStVFsXnY4IdMf21rBu01wvSjx8yADcu/8Aa9dv0qsaVgReCmMpukNE6MZ1y7Buw2Yl4GWkOa2Iqt/466YS6+3athJRdweVx/7x40clYG/dvqtShKTw9/XxwlaRKjNXRL4jEvAy7/7Usb0oWKyiLr1I2pwjRza1D2Ca50Q8e/Yc7pOnq3ZkStHVyydRs66VSJ+JOAIv7SxUsAAuXf53kVHx/9o7D4CojrYLH3uL3Whi7yWWWMDeazT2XrE3FETEhqAiiKJYQbEg9q5o7IrYRUXsNWrsJYldYxf9Zyb/7gdG2FV3YcuZfH4R7twpz3sDZ957ZrZsGSycNxNtxb6Gbz1NSLIe6uKIu3/+hdlzFoi5btMuVqKCZgbe6D8a2AEJWAwBCniLCaX1TYQC3vpiru+M41rAy02ZYXu3wcd3GjZv2aHsGqPch6JK9QbKgtGpQ2s0a9JQWUKSJUuG+WKDa6TIWstjLlMkT47dIRuU/SRw/mLI7Hs/kVGfK3zYUkzLElsGXl4fNtgJHdu3wuatIRjqOlovTN99lwqH9m3HaE8f4cvehJI/Fxf+8tliIdFJewqN9MjLcuf6OVSuXl/4tm+qbLvMml+5EIHuvRyxZ99BFCtaRPnYvYR1RYp/mzIlsTAoAC1EVvzi75dRrWolBM2ZLqwv5ZWAXyEy5X9cvQ4PLx+14XburGk4dDgc04VtKDYBr2EhFwZy3NL2JNuydxysNvba2pTC/MAZaNuhOy5f+QPDhjipecmNunLRFFsGPrmIy6lj+wU/D6zfsBk5cmTDxuDl6NHHUed+Al3A5VsWOZ7wo8djrUoBr4skr5MACWgIUMDzWTBbAhTwZhs6ow88rgW8nJDcyCmtMMWK/oSP4h+5+dLBaaiaq8zu+k+biFJCTN4TWdiI4ydRSFg6NOfUyyy0t7i3tLCdvHnzRpyMslqdjKI5lUWXgM+W9UflDa9TvznOnrugN18pvOXZ9TIjLi0jMnO9M3SPuv/TD3LSNNqxSx+E7tqLX+vXVae9yA2m589fRIYM6ZWY17xlkLaWfn17IEvm75W9SIr73XsPqGakVcVrzAiUFx8WJRcD28UGXlc3T7wWc9cl4DOKfnzGjYbcO/DkyVP4zZiL5SvXaucsLUUDB9iLjbTpceTIMQwRC5q//76vU8DLBuQCYOSIIShYIB+ePX+OoPnSK/+/fQ16g/3KihTwXwmOt5GAFRKggLfCoFvKlCngLSWShp9HfAj4qLPIkT2b8qPvP3DoPxsVDT9bCPtOdTgJ37g8BYbFfAlQwJtv7DhyEohrAhTwcU2c/RmMAAW8wVBaXEPxLeAl0LRp0wgfeNpvPoIwtuDI7LXMZkv7iu9kP+UjZzFfAhTw5hs7jpwE4poABXxcE2d/BiNAAW8wlBbXkCkI+LiAWrF8WeE1n4lFS1fqdRxkXIyJfXw9AQr4r2fHO0nA2giYtIC3tmBwviRAAiRAAiRAAiRAAiSgiwAFvC5CvE4CJEACJEACJEACJEACJkSAAt6EgsGhkAAJkAAJkAAJkAAJkIAuAhTwugjxOgmQAAmQAAmQAAmQAAmYEAEKeBMKBodCAiRAAiRAAiRAAiRAAroIUMDrIsTrJEACJEACJEACJEACJGBCBCjgTSgYHAoJkAAJkAAJkAAJkAAJ6CJAAa+LEK+TAAmQAAl8EYEK5WwRvHqR9p7yVeoa9QOtvmhwrEwCJEACFkDApAV8j26dkCxZMswICLQA1JyCoQnwg5wMTdRy2jO1D3Lym+qDpo0b4H1kJF69eoWDYeFwHzUWf/71t17Q5ae69ujaCZOmztCrflxUkmOa4D0a1apWwrNnz7F85VpMmR6g7Tpp0iTq7zeunAYFvH4R4Qc56ceJtUiABAAKeD4FZkuAAt5sQ2f0gZuigL/yx1VM85uNlClTYrT7UOTOlQOt23fTi0UuUffw/h34MWcRverHRaUlC2bhzt0/MXrMeGTO8j0WzZuJuUGLsWTZqmjd37t5gQJez4BQwOsJitVIgAQo4PkMmC8BCnjzjZ2xR66PgC9YIB/69u6GpctXI+LYSaMOSWbgNQJedlSkcEFs3rASeQuWUv1mz5YV48eORLmyNrhz5y4GDnbDiZOn1bWtG1chR47syJghPf7++776XtDCpWoxIIX9gd1bkCNvce34z54MQ6cufbT3r1w6D1u3h6JqlQqoUb2KyP4fQcfOvSEZBc3xw/xFy+Bg3xMfP36E7xR/LFy8QieLnDmzY8/OjSj6c0X1RkGWhg3qomaNqnAWY49aPifgf/whC8Z5ifm76YZPAAAgAElEQVSWK4N/nr9AwJwgBC1Yqr1NtjXY2QHZBJcLFy/BfbQ3Tp46o66nSZNasBqF6tUq4d3bd1i7fhM8x05U45dlgENvsTjKib/+uo9uXTrgw4cPKFaqEt6/f4/06dJhoo+HGufjx0/gM3EaVq1Zr+1XMpk8cSwKFyqg4jVoiBtOnT6HggXzI3jlQpw8fRY2pUtiz94DKFWyBK5ev4EOdr1UHzKmY8e4oUTxourNyjS/WVi99jedLKNWoID/IlysTAJWTYAZeKsOv3lPngLevONnzNHHJuDLC5Fs36c7bG1LYW3wRkwWtpRHQswZs0QV8FKAeowchqw//oA2HbojceLECNkajG07QjFVWFDq1a2lxLxN+Vp4+fKlGlZMGXh9BXzx4j/By3sSzpw9r4SsFMWS0c5t6+DhNQHzxYLApkwpLF8ciDLla+DBg4ex4qhXtyaGDHJErXpNdWL7nIBftngufr90GWO8JqJ4sZ+wfs1iNGzaDucv/I6MGTPg+JE9aN7aTon27l07omd3O9hWqKX68vIYgSxZMsNx4DAhyNNihVigzJgViJWr1mkF/EBHewQGLcKmzduRRFh5jkacUNeWLpqDe/f+xCjx1qBA/nxYsnA2evYegENHjiJVqpTqLce4CVMRvG4jGjX8BR6jhqF85br4QSw4NqxdiqIlK6rYpU79HZwGueJE+F60t+upxr1rx29YLRYDc+YtQulSJbByWRBq1Gn8Rd5/CnidjxMrkAAJ/D8BCng+CmZLgALebENn9IHHJODXCaGYSlhYZLb3tw1b8Or1a+1Y8ubJjdAd/8vGygsBs4MwwXe6qjN9yngl6qKWQkVt8VZkgXWVqB74ZEmTYu/+MPRzcFELh4oVyiLAzxclbatps8hbN62Gn/8cbNkWYhABfyT8GCZPmxltmJLRxnXLkK9wGe33Iw7vgqPTMIQdDo91So0b1VdvL+o3bKVr6vicgM+XNzfu3vtLm73fELwMi5aswJrgDSpLHnE4VAj04QgJ3S0WHJFqsXNbvJmQxW34IBQRYx/m6oFbt++o+pEfIpUPXxaZga9SqQJatu0SbWw/CNEv51e4eDn8888LdW3wIAdkz5oVAwYNR/OmDdVCoX6j1tr75POyYmUwToiFxGohyH+2qYohLo7qGZKLgH27NqssvVwgbBFvVA4cPCwWE/Pw9OkzyP4eP3mCN2/e6mSkqUABrzcqViQBqydAAW/1j4D5AqCAN9/YGXvkMQl4Kf6aCaG2TVhKpFdbZqLjokTNwDsPsFcCtGefAarrDu1aCTuJu7J0aEratGnhNc5XZJEXq299awZ+05btWLw0ujddMpLCOX+R/wn4sH3b4OrmiT37DsaK5RfxlkCK36/NwEtLirTISCEv7SfS8uLq7qm1s0h7ykDHvrCxKYmIiJNi866/srLIIjfHOtj3QvNmDZEgQQKsWbsB0/xnI1JsEJZFCnhpgenb3yXaHMoI68uCQH8UL11Z+/1WLZqgXZsWKtvv0K8Xiv1UGL37OWuvT/EdKyxN97Bh8zadAl4Kdhfn/qhbu4ZabMyauwAbNm79oseLAv6LcLEyCVg1AQp4qw6/eU+eAt6842fM0cdmoZGnp3Tu1Fad6nLz1m3YOw7GzZu3jTkcRBXw0iJy9FAoatZpgus3bqKm8KWPGe2Kpi07RhvDC5El1rwhyJEjG8IP7kTWXD9ps/SycqZMGXH62H7lgdcI2M954A0t4KXg3hXyG4qWqKAdY53a1VGjWmUhxL2izeNzGfgjB0KU6F62Yo2qu1b4y1euXqcEfIb06ZBOZNWvXruuxHqbVs1E1t1F+djfvXunvOY3RLykvUiOI8DfFxuFVWamyHzHJuCl7z48bCcKFSuntSYNcuoH6ecf4DwcLZo1Up75X5u01Y5fjmvV2vViP0HsGfhTwhtfuFBBnD7z7yKjXNkyWCg29bbt2EPr3dfnAaOA14cS65AACUgCFPB8DsyWAAW82YbO6APXZxNrsmRJ0bplU4QL+8Pvv1826pg+3cQ61ddbCN9XGC6y3SmSJ8fukA3KQhI4fzFk9r2f8OjPFV7qO3fvqXFJIXv5/DF07+2IvSI7Ln30Dx8+UtdOHt0Hh4FDsf/AISWgpa9b+sk1m2DlJlZDC3jZ7/IlgbguNnFKK0l6IbqXLZqLefOXaEV5woQJ1fjuXD+HytXr49r1myrbLrPmVy5EoHsvR5XpL1a0iPKxe3n7YsWqYOHFL4mFQQFoIbLiF0Vc5DGVQXOmC+tLeSXgV4h+/7h6XXj3fQSXpJg7axoOCcvPdGE5ik3Ay2uShVwYjPb0gbRMybbkAk5u7JW+9kPCAz/KYxzWC3tVg19qY8J4D1SoXE+dshObhebMmfM4JRZSQ4WtZ/2GzWLTcTZsDF6OHn0cv2iDNAW8Uf8zZOMkYFEEKOAtKpzWNRkKeOuK95fMVh8B/yXtfWvdTwV8UWHVkP7zMuVqKp+0zCR7CxtNaWEdefPmDZaIk3F8J/tHy7ZLq82I4c5ImSKlsv+4iXPkZZEZfG9Pd7wUp8FID7bMhNs7DDa6gJfecx/vUagiTrd58eKlOr3Gb8a/IvrTD3LS8OsoTscJ3bUXv9avC3dXF7XB9Pz5i8ggTtiRYn7iJD9VVdpa+vXtgSyZv1dvSaS43y1OfpFFWlW8xoxAefFhUXIxsF1s/pW2n9eCmy4BL0/y8Rk3Wu07ePLkqRjvXHV+vabIDbXSzlSwQH6xSLiGESPH4viJU+oUGl0eeFubUhg5Yoi4Nx+ePX+OILGYCZgz/4seHQr4L8LFyiRg1QQo4K06/OY9eQp4846fMUdvagLemHNl25ZDgALecmLJmZCAsQlQwBubMNs3GgEKeKOhNfuGKeDNPoRWOQEKeKsMOydNAl9FgAL+q7DxJlMgQAFvClEwzTFQwJtmXDiq2AlQwPMJIQES0JeASQt4fSfBeiRAAiRAAiRAAiRAAiRgLQQo4K0l0pwnCZAACZAACZAACZCARRCggLeIMHISJEACJEACJEACJEAC1kKAAt5aIs15kgAJkAAJkAAJkAAJWAQBCniLCCMnQQIkQAIkQAIkQAIkYC0EKOCtJdKcJwmQAAmQAAmQAAmQgEUQoIC3iDByEiRAAiRAAiRAAiRAAtZCgALeDCK9duVC9dHfsqwJ3gAHp6EmMep7Ny9ox+E82C3aR5KbxAA5CBIgARIgARIgARKwQAImLeB7dOuEZMmSYUZAYLyjT5EiBa7+fhxv3rwVf97g+MnT8PL2xbnzF6ONLW3aNDhyIAR16jfHrdt3DDLuxIkTI2HCBHBy7Isc2bPFqYAf4uKIDm1bIlGiRAjdtQ8jx4zD06fP1LySJk2i/r1i6TysXvMbBbwe0eaHT+kByYqr8IN8rDj4OqZuSr8PGSUSIIH4J0ABr2cMNAK+lG01PHnyFC2aN8bIEYPRqHl7XLp0JVorVSpXwMGwI/jw4YOeretXbZBTP+TOnTPOBLx97274tUFddOvlgFevXmPiOA9EijnZO7hEG7B8QyDfDCxfuVa/iVhxLQp4Kw6+HlOngNcDkpVWoYC30sBz2iQQAwGzF/DVqlZCvz7d0bp9N6MGOaqA//Ovv1Vf7kLA58iWFb3sB6JCOVsEr16kHUP5KnVx48Yt7ddp0qTG+LGjUL1aJbx7+w5r12+C59iJ+PjxI+QP5rq1a0Bm2kuVKoEzZ84rkXz7zt1oc4pJwJe1LQ2PkcOQL28e3Lh5C6M9fdQCIkeObDi0bzsqVa+vHUvWH39AeNhOVK7eANdv3IyVWcThXRjgPFy1JUt2Mdd5c6bj1yZt8f79e+29nxPwSZIkwSi3IWjYoB4SJ0mMrdtC4OruhXfv3qn7ihQuiLFj3FCieFFIntP8ZmH12t+0bTYUC4fBzg7IJvq8cPES3Ed74+SpM9rrt66egV3XvnAd5oxCBfNjwiQ/+M+cq643blQf7q4uyJQpI/btC8Ogoe548OChupY+XTpM9PFAzRpV8fjxE/hMnIZVa9ara2dPhuHQ4aOoUN4WR8IjkDdPbvEGKClate2KO3fvIbYY6vvwUcDrS8o661HAW2fc9Zk1Bbw+lFiHBKyHgFkKeGnnaCJEWr++PfBdqlRYvGyVVrwZK3SfE/DlypbBrBmTIbPysiRMmFD9+871c/hUwHt5jECWLJnhOHCYEJFple1kxqxArFy1Tgl4J4c+aNepJ+4Koejt6Y4MGdKjVbuu0abzOQEvBeapiP1wGuSK7SG70LF9KwwbMhDFSlZUi4NFQQG4+PslePtMUW059OuFSsJP37Zjj1hRpU79HS6dO4rCxctpLTMx3fA5Ad/fvidq1ayKjp17Q7JbtSwIS5evxrz5S1Qzu3b8Jmw36zFn3iKUFouWleJ6jTqN1UIjY8YMOH5kD5q3tlOivXvXjujZ3Q62FWpphyAF/OUrVzFuwhT89dd9PHr0WC14Spf6GUsWzkKnLn3/Ff4jXFAwfz60aNNZ3bt00Rzcu/cnRo0ZjwLi+0sWzkbP3gNw6MhRJeA72PVEtqxZ1eJDxjDAzxcRx08iMGgxYouhvs8dBby+pKyzHgW8dcZdn1lTwOtDiXVIwHoImJ2Alx5wmek+d+4iFi5ejj37Diqhqikyaxq649+MqqYEzA7CBN/p6svpU8ajUcNfol0vVNQWb0VWPLbyOQFfqFABbNu0GnkKlIx2q9zc+amAdxs+CEWKFMIwVw/ljZeZ4MgPkXj27LkS8FUrV4Rdt76qHZnpPnooFPmLlMGLFy+1bX9OwMtMd548ubQ2HpnFl+K2TLkauCuEanXxhmLa5HEoLb6OjIzEvl2bMX7CVGwRGfHYisxenzl+AHkLlRb2mVex1v2cgP/xhyx4K7LtDx8+UvcOG+yEzJkzQW52lWXLhpU4cPCwWMTMUwuEH8Ti5vGTJ2qPgWQTcThULHaGIyR0t8j2R0K+OYj6RkLOUWbGD4tMedTi6zNGtecp9ifIIuN2/vQhVK3xq8r+y7cKclHyzz8v1PXBgxyQXQj2AYOGKwHfRFiifhR9SQEv9zHItyb3/vxTvCGYjdhiGCugKBcp4PUlZZ31KOCtM+76zJoCXh9KrEMC1kPA7AR8hvTpMN57NIoVLSw818FYsSoY9+8/MHrEYsrAB/hPQumy1aP1/zkBLzd8Otj3QvNmDZEgQQKsWbsB0/xnK1H9qYCXjd2+dhZVhOi8dv2Gtu2YLDR1aldH7x5dVNZetlesaBGVrdYI3oN7t4oNt5OEEP0L8wP9YVO+pqoXW5F2kd/Phn91Bl5m8IcPcUJZ2zJqvplEVn33ngNwcnFV3UrB7uLcX1mH5DhnzV2ADRu3aodUqmQJDBSbdm1sSiIi4iQmTfXHqdPntNelgK9euxH+uHo92jSWLwnEtu07xeJuhfb7clPxQJcRePP2LRaI+RcvXVl7rVWLJmjXpoXK9usS8LHFUN8HkAJeX1LWWY8C3jrjrs+sKeD1ocQ6JGA9BMxOwGtCkztXTvQVmyxbNGsksvAH0EPYIIxZPifgXYcOhByH9MBHLZ8T8NLzfePmbbx8+VLdE+Dvi42bt2OmyEB/KuBl9vp4+B4U+MlGmymW7X9OwEufe+i29WjasiPOX/hdDUP2H1XAS/tJtSoVVeb/obCa+E721wuVHEP/AUMQdihcK7pninG3btdNpwd+iu9YtYnX1d1TZdXl2OXbEyngpRAuXKggTp/5V5BLK9LCeTOVrUdaZuQiLZ3Iwl+9dl3VbdOqmch+u6BYKbF/4P899DEJ+EkTPJWdZuz4yaptaTG6cOYIqtVqiPfv3iv/f6Fi5VQcNExz5syuvP66BHxsMdQLqKhEAa8vKeusRwFvnXHXZ9YU8PpQYh0SsB4CZivgNSGSVo8eXTth/MSpRo1aVAEvRXDTxg3gOdoVTYRw/v33y6rvqB74ymLj6LXrN7Un0awQmWGZLfbw8hGiNCnmzpomNkyGY7r/HCXg7cVG3Oat7PDX3/fh4z1KZag1G3NlBlv+cXayR57cubSn0EiBXPLn4lgp/PRyo6rcqCkXNP7TJqBc5Tq4KRYMsshs+tGwULwXWffa9ZqqTLw+RfrlZYa8S49+eCEsJxOFPUWOQ4r6qPNds2IBgsWm3GUr1ig7k/wjveXnxRGb0nsvYzR/rr96myD3ACQXR4OeOrYfQ4WdaP2GzWqz7cbg5ejRxxERx07CpkxJLBTe/RYiK35RsJUblYPE5tnCxcvrFPC2NqXEW4YZaNuhu/DI/yH2AzgpRs1adlJjlqzkwkBu9JV2KxkXe8fBaqOuLgEfWwz14SnrUMDrS8o661HAW2fc9Zk1Bbw+lFiHBKyHgNkL+LgKlUbASz+49MvLTLHcQKmxdXx6Co1mXB279BHnp+9VgtxrzAiUF6fVSBG8fUcoXN088VqcKS9/MLdt3Vz53Yv+VFhlpuWHNcmTT2SJ+kFOmnZPnj6L+g1bqS+HDh6Adq1biHG9xc5de9CyeRN07dlfe3qMrDN5ohfSi8x21x799UYmxynPgW8vLCZy4/DO0L1w9/DG8+f/qDaifpCTptGZYr+BPF1H7g+YKrLwP/7wg/KQ37p1B98LD7xGSEuhPXLEEBQskA/Pnj9HkNjcGjBnvnZs0tYiNylnyfw9bt66rc7c3733gPZ6TBl4WUEuYgYOsBebYdPjyJFjGOI6Gn+LhZEsGYXNyGfcaPXBWPI4UL8Zc7XHX+oS8LHFUF+oFPD6krLOehTw1hl3fWZNAa8PJdYhAeshQAFvArH+nAfe0MPaKjbb+ojNq3LTL0v8EaCAjz/25tAzBbw5RCl+xkgBHz/c2SsJmCoBCngTiIwxBbz0kHds3xqdOrRRxzSyxC8BCvj45W/qvVPAm3qE4m98FPDxx549k4ApEqCAN4GoGFPAS3+6PFe9T/9BWq++CUzZaodAAW+1oddr4hTwemGyykoU8FYZdk6aBGIkYNICnnEjARIgARIgARIgARIgARKIToACnk8ECZAACZAACZAACZAACZgRAQp4MwoWh0oCJEACJEACJEACJEACFPB8BkiABEiABEiABEiABEjAjAhQwJtRsDhUEiABEiABEiABEiABEqCA5zNAAiRAAiRAAiRAAiRAAmZEgALejILFoZIACZAACZAACZAACZAABTyfARIgARIgARIgARIgARIwIwImLeD5wRVm9CTFw1D5oUjxAN1MuvypSCGMGD4IHex6mcmIOcy4JMCfHXFJm32RAAkYgwAFvDGoss04IcBfwnGC2Sw7oYA3y7DF2aD5syPOULMjEiABIxGggDcSWDZrfAL8JWx8xubaAwW8uUYubsbNnx1xw5m9kAAJGI8ABbzx2LJlIxPgL2EjAzbj5ingzTh4cTB0/uyIA8jsggRIwKgEKOCNipeNG5MAfwkbk655t00Bb97xM/bo+bPD2ITZPgmQgLEJUMAbmzDbNxoB/hI2Glqzb5gC3uxDaNQJ8GeHUfGycRIggTggQAEfB5DZhXEI8JewcbhaQqsU8JYQRePNgT87jMeWLZMACcQNAQr4uOHMXoxAgL+EjQDVQpqkgLeQQBppGvzZYSSwbJYESCDOCFDAxxlqdmRoAvwlbGiiltMeBbzlxNIYM+HPDmNQZZskQAJxSYACPi5psy+DEuAvYYPitKjGKOAtKpwGnwx/dhgcKRskARKIYwIU8HEMnN0ZjgB/CRuOpaW1RAFvaRE17Hz4s8OwPNkaCZBA3BOggI975uzRQAT4S9hAIC2wGQp4CwyqAafEnx0GhMmmSIAE4oWASQv4eCHCTkmABEiABEiABEiABEjAhAlQwJtwcDg0EiABEiABEiABEiABEviUAAU8nwkSIAESIAESIAESIAESMCMCFPBmFCwOlQRIgARIgARIgARIgAQo4PkMkAAJkAAJkAAJkAAJkIAZEaCAN6NgcagkQAIkQAIkQAIkQAIkQAHPZ4AESIAESIAESIAESIAEzIgABbyBgtXFrj1qVq8Cu259DdSiYZqZEzAVx4+fwqy58w3ToAm0snblQlSsUFaNZE3wBjg4DTWBUXEIJEACJEACJEACJBA3BExawPfo1gnJkiXDjIDAuKEhemndsin69e2BbFl/xKnTZ+Hp7YuTp87o7N8UBPzGdcsRtGAJ1v22WTteYwv4+vVq48mTpzh05KhORl9SoVHDXzDUZQAyf59J8Xcb7Y1Ll66oJhInToyECRPAybEvcmTPRgH/JWBjqHsqYh9+tqlqgJbYhKUR4IdiWVpEDTsffiiWYXmyNRLQlwAFfBRSMqs7f64/uvbsjzNnz6NF00YYNsQJlWs0wIMHD2NlagoCvuTPxXH9+k08efo0zgS831Qf1eekqTP0feZ01itVsgQWzw9Ax869cf7i7+jauQO6iT9VajbA27fvtPcPcuqH3LlzUsDrJKq7AgW8bkbWWoMC3lojr9+8KeD148RaJGBoAhTwUYj26dkVtWpWRat2XbXf9fZ0w+q1G3Di5GkcO7Ibffo542jECXVdZrdlll6+IZACvk2rpnj+/B/Y2JTC+fMXhbAchmvXb6i6adKkxvixo1C9WiW8EyJ07fpN8Bw7ER8/flTXq1WthLFj3PBDlsw4dvwkRoz0wpU/rmnHcevqGdh17QvXYc4oVDA/Jkzyg//Muer6vZsXtPWcB7th+cq10QS8zFYXyJ8P2bP9iJ2he+E0yBWvXr9WdbJnyyrGNRLlytrgzp27GCjul3PVVWSG3Gu0K9KkTYPI95F48eKFusW2Yi0lshMmTIghgxzR2a4tEoh/lokxeY+fjPfv3+tqGnJRcPPWbUwUc9SUNSsWYIzgdfrMOe33YhLwHdu3Fm9RuiND+vSIECyHDh+N22Ju+sShYYO6GOzsgGyCy4WLl+AuMv9R38DEFofGjerD3dUFmTJlxL59YRg01F278EufLh0m+nigZo2qePz4CXwmTsOqNeu1z1E6wTFXzhy49+df+Cj+yZcnNwa6jEDo7n06ecVWYaTbEDx8+AhLlq3C06fPYqxKAf9NmC36Zgp4iw7vN0+OAv6bEbIBEvgqAhTwUbDlFaJp4/rlmCGE8WIheKQYj1p0CXjXoQPRsUtvnD13EZ6jh6NI4YJo0LiNasLLYwSyCHHuOHAY0qdLixVL52HGrECsXLUOuXLlQMiWYLU4OBB2GD262aFViyaoUaextnspHC9fuYpxE6bgr7/u49Gjx1pRKsWyLFLkrl77238EfN48udClez+8e/8Oi4ICsP/AIXiNm6SsKCFbg7FtRyimTg9Avbq1lJi3KV8LL1++1OuBiikDL21IjX79RfRrrwRp0Bw/hO7ah8nTZupsV45p8tSZ2Lp9Z6x1PyfgS5f6GYsXzBLcW+NPIYYnjPPAd9+lQvdejjrjkDFjBhw/sgfNW9sp0d69a0f07G4H2wq1dMZB9rtk4Sx06tL3X+E/wgUFxaKpRZvO6t6li+bg3r0/MWrMeLWYWrJwNnr2HqCsR3IheOLEKRG3YFw4cxhlK9VGjWqVxWKvMrr1dNDJK7YKZW1Lo1ePzqhcsTyC12/E3HmLtYvKqPdRwH8TZou+mQLeosP7zZOjgP9mhGyABL6KgFkK+KNhocj0fUbthGXGuHkrO/W1FOGhO/7NbGpKwOwgTPCdrhegfHlzq8xxDbEhdfee/UIwT8X1GzfVvboEfK0aVdBJZMllyZA+Hc6eDEOxkhXxSGRc3YYPQpEihTDM1QO3bt8RIj4dIj9E4tmz53AeYI/8+fPC3sFF3ZsoUSL06dUVs+cu0GaspYBv1bYrDodHxDgPublTbur8NAMvxWHAnH83sf5aX2aY+6O6WBxIy1CAny9K2lbTvgnYumk1/PznYMu2EL14xSTgw/Ztg/sob20GuVLFcpjq660y9LrKvl2b4eE1QQj+vbFW/ZyATysy2fJtx61bd9S9VatUxATv0Shfpa76OrY4yJhEHA4Vi6zhCAndLdhHIuuPP2gXSvL+mOLg6zNGZbjlnglZUqRIgfOnD6FqjV/x7t070e4uFC5eDv/88++bisGDHJA9a1YMGDRcCfj9B8KwdPka3Ll+DgWL2qrnr0PblmjTobsuXIjtvwfNzfJ5bNG8sXhT1E481wfgNmpstHYp4HVittoKFPBWG3q9Jk4BrxcmViIBgxMwSwFvcAqfaVBmbXt17yz81+1Ro24TZYXQJeA/PYXmj4vHUF9k4OXmy6RJk8DBvheaN2uIBAkSYI2w5Uzzn43IyEhI8Scz6t4+U2KcmhSO1Ws3wh9Xr8dYJyYBH/UUmp9LFBXZ4LlqYdGhXSuM83JXlg5NSZs2rcjO+yIwaLFemGMS8DeunEbtX5qqtwayyE3B4WE7kT1PMe1iIaYOdm5bh0lTZnxVBl622VcsfqSdRW6ATp48GRInSqyy2rLEFgd5XfrvB4rNsTY2JRERcVJ4+/2FTep/tp2Y4rB8SSC2iTcGCxev0E7ryIEQZYN58/YtFgT6o3jpytpr8g1LuzYtVLb/WwW8rkDJBaG0hnVo20q9FZrqNwvLVqyhgNcFjtcVAQp4PgixEaCA5/NBAvFDgAI+Cndp+7ghsu2btuzQfndv6CZME4InWHjWZWZ4uNsYHAw7oq5/6oGPKuBTpUqJy+cjUKJMFSX+pXC6cfO2sqbkzpUTAf6+2Lh5O2bOmgeZSc4jbC79BwzR9lu5UnmEHQrHhw8f1PcMJeBr1ayGkSMGo1qthurYyzHCx960ZcdoT98LkSXWeOR1PZbTJo9TGeqofnV5z6H92+Hq5ondew+oJiqUs8X0qeOj2VFiatt/2gT11sN3sr+2yoLAGZg42Q/nxN4CTflcBl4KY2l7adepp/J+y37lGDUCPrY4yCx1OpGFv3rtuhL6bVo1Exl7FxQrJfYtiCx6bHGYNMFTLcLGCp+/LMmSJRV2mCOK8/t379XipVCxclprkhx7zpzZMcD52zgKIJEAACAASURBVDPwscWovcjiD3VxxF1hJ5o9Z4F45rapReOnhRl4XU+69V6ngLfe2Oszcwp4fSixDgkYngAFfBSmUrANHTwAPYQ3+dz5C6hUoRwCZ08TPuYuamOnFN3Xb9xSGxDl8YUb1i1TmWrNJlbnAX3xa9O2yr4hBZrcmNq4eXvVwwqRoZXZcw8vHyEOk2LurGk4dDgc04VdJU/uXNgmrCtde/RXnuiO7VsJ33IXVBGn32hKbAI+qgdeLjRkdlVujpV/5CIjY4b06kSX90K4LRKnu5w6dRbjJ05FiuTJsTtkAxYtWYHA+Yshs+/9+nQXPulFuHP3nl5Pm8vA/sqK06lrHyQT83ouxL8Uu479e6FenZriXHzhgReLkMA508V8j/5H6H+uE5syJUXGegbaduyhBLtdxzYiq94NVWv9qjbIyjcY8o+zk71ipzkHXi527MX4a9eqhtbtugkrUkKMdh+KOrVrCF9/TZ1xkP0uFHsEWois+MXfL6v4BYlxFy5eXqeAtxUbl+fLMQvLy+Urf6jTi+SpQM1adlL9rhR7HuTCYLSnj7J5yefB3nGwWgwaMwMv37LI8YQfPR5rPCng9XrcrbISBbxVhl3vSVPA642KFUnAoAQo4D/BKW0NfXt3Q/bsWdXxiDILrPGDy4zp7BmTkTp1alwR1pD3ke+FsD+jFfDNm4psq/hezhzZcf/+A/Tt76L1z8vTZbzGjEB5kRGW4nO72DgqM9Sv37xRI5CbFr2FnSVTxozqFBpXdy8l+PQR8FFPodHUnyl8//KUGykOZX+5xUZZeaa6FNHS1qHJsMu3AbLf0sI68kaMZcny1WrOmtNxdD1tMms9b64fyohNnPfFm4bW4gQfuVCRto3hQsRK37U8hea3jVvUxllNJltXu9ICI/cifC9OdJEnz8g3H5pTeaJ+kJOmnZPiNKD6DVtBvvmYPmU8bEqXxDOxCVl6yzu0ay185TZifm/VKT+xxUHGX76JyZL5e3USjpfwtGveIsi+YltItWjWCAPFfoaMGdPjyJFjGOI6Gn//fV8NUS6ifMaNVosdeW6+34y52r0KxhTwujhrrlPA60vK+upRwFtfzL9kxhTwX0KLdUnAcAQo4A3Hki2RgNkSoIA329AZfeAU8EZHbNYdUMCbdfg4eDMmQAFvxsHj0EnAUAQo4A1F0vLaoYC3vJgackYU8IakybZIQH8CFPD6s2JNErBYAhTwFhvab54YBfw3I7ToBijgLTq8nJwJEzBpAW/C3Dg0EiABEiABEiABEiABEogXAhTw8YKdnZIACZAACZAACZAACZDA1xGggP86bryLBEiABEiABEiABEiABOKFAAV8vGBnpyRAAiRAAiRAAiRAAiTwdQQo4L+OG+8iARIgARIgARIgARIggXghQAEfL9jZKQmQAAmQAAmQAAmQAAl8HQEK+K/jxrtIgARIgARIgARIgARIIF4IUMDHC3Z2SgLmTaBgwfzY8ttK5C9SxrwnwtGTAAmQAAmQgBkSMGkB36NbJyRLlgwzAgLNEC2HbGwCcf0BImnTpsEE79GoVrUSnj17juUr12LK9ABjT1O1L/vu0bUTJk2dYdD+Spf6Ge4jXFCi2E+4desOps+Yg+D1m3T2YQoC3nXoQKRLlw5Dho/SOd6oFYoVLQL54USr1qz/7H2S9ZEDIahTvzlu3b7zRW3HZ2V+GFd80jftvvlhXKYdH46OBL6GAAX811DjPSZBIK4F/JIFs3Dn7p8YPWY8Mmf5HovmzcTcoMVYsmyV0XnkypUDh/fvwI85ixisr9Spv8Oxw7sxbsJUrF67Xoj4opBM+/YfhN17D8TajykI+Bw5siFpkiT44+r1L2LSrk0LtGzeGC3adI7xviqVK+Bg2BF8+PDhi9qOz8oU8PFJ37T7poA37fhwdCTwNQQo4L+GGu8xCQJxKeBz5syOPTs3oujPFfHq1Ss1/4YN6qJmjapwHuymvh7g0Bu5c+XEX3/dR7cuHZT4K1aqEt6/f48UyZOrTHfjhvXF15Hw8Z2mMviaUta2NDxGDkO+vHlw4+YtjPb0UQJSlq0bVyFHjuzImCE9/v77vvpe0MKlmOY3W/09e7asGD92JMqVtcGdO3cxUIznxMnTOmNUonhRbFy3HHkKltQK1c6d2uLNm7dYsSoYflN9cOWPq9p+uti1R53a1dHBrhekgN8mxrVqzW9KDD948BDuHt4I2blH26/kM9jZAdnE+C5cvAT30d44eeqMup4iRQp4e7qh0a+/4MnTp1i4eAX8RPZfU2JjuXblQlSsUFZVXRO8AQ5OQ7X3ybd2dWvXQOLEiVGqVAmcOXMe9g4uuC24/PhDFmzbtFr1Ld/sPXnyRN3XV1wPOxSOCuVsEbx6kbat8lXq4saNW9qv04ts/0QfDxXzx4+fwGfiNG0WXwqkoDl+mL9oGRzse+Ljx4/wneKv5vWtZaTbEDx8+EgtFJ8+fRZjcxTw30racu+ngLfc2HJm1kuAAt56Y2/2M49LAV+vbk0MGeSIWvWaxshNis6BjvYIDFqETZu3I0nSJDgacULVnzDOQ4jwbOhtP1AJ7lXLgtClRz9EHDspxGRSnIrYD6dBrtgesgsd27fCsCEDUaxkRSUEZYkpAy+FasjWYGzbEYqpws5Tr24tJeZtytfCy5cvY42xvHf75jU4e/aCEpuf2kV0Cfi9YkEzbIQHVq5ah2ZNG8LLwxVlK9bGw0ePkTFjBhw/sgfNW9sp0d69a0f07G4H2wq11Jim+I5VtiBnFzekSZsayxbNxTifKdi8dYe6HhvLBAkSQP5xdrJHrpw5/iPgnRz6oF2nnrh7955YJLgjg1j4tGrXVcsitgx8woQJVb0718/hUwG/dNEc3Lv3J0aJNzAF8ufDkoWz0bP3ABw6clRZcnZuWwcPrwmYLxZXNmVKYfniQJQpX0Mtbr6lyMVdrx6dUblieWFv2oi58xbj2vUb/2mSAv5bKFv2vRTwlh1fzs46CVDAW2fcLWLWnxPwefPkRuiO6N7mgNlBmOA7Xc15+pTxaNTwl2jzL1TUFm/fvouVSeNG9dG3dzfUb9gqxnpSdFapVAEt23aJVieJsHlc/f04atZtgstXrqpr7iMGI1nSpHAbNRbyep48uXDp0hV1TQrrW1fPoEy5GrgrBKMsMQl4mYkO8PNFSdtqWrG/VWSZ/fznYMu2EJ1xTpMmNZwc+6J1iybKiiKF/P4Dh9R9ugT81g0rka/w/zax7g7ZgEni/k1bdkBmqyMOh8Jx4HCEhO5Wbx2y/viDyoQnSpQI1y6dQPXajXH12nXVV8XyIqOeACoTLktMLKNOaJBTP+TOnfM/Ar5q5Yqw69ZXVZWLpaOHQtVm2xcv/l3Q6GOhuXfzQjQB/0OWzGI+u1C4eDn8888L1c7gQQ7InjUrBgwargT8xnXLovGQ9R2dhiHs8L9ziq0cDQtFpu8zaqvINyjNW9lFuyVD+nRoId52dLFrh917DqhnJ2qhgNdF2XqvU8Bbb+w5c8slQAFvubG1+JnFZQb+F5HZloJNVwa+cKECwkPuEo19nty5ELZvG+7ff6AV2SlTpsT+g4fQraeDqiutKb17dFHZ4sjISMiNljJbLQWvLDEJ+A7tWmGcl7uydGhK2rRp4TXOV7wJWKz3MyBFdYP6dcSbgtHo2ccJBw4e1ingPz2FZvH8AITu3o8FwkYiS6mSJcQbib6wsSmJiIiTYgOuP06dPgcphk8c3Ytc+UvEuHCSAv5zLKNOSB8BL+vfvnYWVWr8qs1af42AL1O6JBYE+qN46craIbQSix7ZlnzLIAXShuBl0U7lkTF3dfPEnn0H9Y5DTBVlfGrVrIoObVuhSOGCmOo3C8tWrKGA/2ay1tEABbx1xJmztC4CFPDWFW+Lmm1cCnjpbd8V8huKlqiAV69fa0V3jWqV4erupb6OSXRKz/WVCxGoKew30susKW/fvlWn2UhrTei29WjasiPOX/hdXZYZ4KgCXtYJP7gTWXP9pF0EyHo1q1fBmNGu6t6o5YXIEmvGGVPQa9eqjp+FDz7qyTbjhP0miXgD4DJ0pLDijBJ2mEeYOMlPNfGpB/5TAS8z/zNnzcPGTdsgs8XyhBiZYU8qrERtWjWD23AXtSdA7g2QGfiqNRvi+o2bqm25QEmYIKFWZBtKwEvf+/HwPSjwk402c96mdTO0bd0czVp2ivG/h08z8LKd8LCdKFSsnNaaJBcQcm/EAOd/M/DGEvDt27bEUBdH3P3zL8yeswAbN29Ti7xPCzPwFvXjzaCToYA3KE42RgImQYAC3iTCwEF8DYG4FPByfMuXBOK68B5LD3R6IVClb3ve/CXaTGhsojPA3xeJEiYSRx6Oxtt379CpQ2tc/P0y9orsbMmfi2Pl0nmoVL2+8ku3aNYI/tMmoFzlOrh587ZCI0Xw5fPH0L23o7pHWl/kYkBujpXWlUVLViBw/mLhK0+Lfn26C5/0InFizr1YsRbInxdbNqxSPvbNwvYixeh8kWVeukwIcWE7kmNs1qShsgTJTZ/zxQk1kUJ8azax7hH9duraF6G79qpNpQsCZygPvNyUalOmJBYGBaCFyE7LecqjN4PmTBcWlPJ4J+Y/1ddbbCZNDuchbkiVKhWWCj+5vzgu9rcNW9SYY2MZ1QMv325oNrHKhYHcxGov5i/tJ3+JDb8+3qNUxr91+25aFtKuEzhnGuo1aIkHgmGSJInVQkqWqB74yiIe167f1G7wlTGSCxK5wVhatVaI58HecbDabGxMAS/fsly+8gfCjx6PNZ4U8F/zU8Q67qGAt444c5bWRYAC3rribVGzjWsBL33dUhBWqVJB+ak/d3JKTLaPVKlSYrT7UNSrU1OJ4dDd+5S9QopdWYYOHoB2rVsIS8lb7Ny1R5zs0gRde/bXnkQj60ghN2K4M1KmSKlOJNF4oOXbAW9hoyktLCtv3rzBkuWr4TvZP1qmPqbAyw2SI4YNEpadwnj85KkS75qz7eWiwX/aRJQSC4x7IvsbcfwkConTZzQCPlicBrN3fxjKiLPkZXETp8zsDN2j7UraS/r17YEsmb/HzVu34eXtqz2eUlqIpPWnwS918PTZMwQtWKqy95oSm4CPegqNpv7J02fV/gQp4GV2Xcan6E+FcfrMOSXwP13M+PqMQXOxUHorTtwZ7jYG637b/J9TaDRtd+zSRy1S5ClAPsJiJBcrTwQrvxlztScJGVPA6/sfLQW8vqSsrx4FvPXFnDO2fAIU8JYfY4udYVwLeIsFaUETkwI+6iZWC5qazqlQwOtEZLUVKOCtNvScuAUToIC34OBa+tQo4C09wl8+Pwr4ql8OjXdYPAEKeIsPMSdohQQo4K0w6JYyZQp4S4mk4eZBAU8Bb7inyXJaooC3nFhyJiSgIWDSAp5hIgESIAESIAESIAESIAESiE6AAp5PBAmQAAmQAAmQAAmQAAmYEQEKeDMKFodKAiRAAiRAAiRAAiRAAhTwfAZIgARIgARIgARIgARIwIwIUMCbUbA4VBIgARIgARIgARIgARKggOczQAIkQAIkQAIkQAIkQAJmRIAC3oyCxaGSAAmQAAmQAAmQAAmQAAU8nwESIAESIIH/EOhi1x41q1eBXbe+pEMCJEACJGBiBExawMsPZUmWLBlmBASaGDYOxxQI8IOcTCEKpjmG+PjgmtKlfob7CBeUKPYTbt26g+kz5iB4/aZ4BZQoUSIMH+KEFs0bi5+lSbF7zwF4eE3A33/f1zmu+BbwadOmwZEDIahTvzlu3b6jc7xRK/Tq0Rlbtobg9p27n73PdehApEuXDkOGj/qiduOzMn8fxid99k0CpkeAAt70YsIR6UmAAl5PUFZYLa4FfOrU3+HY4d0YN2EqVq9dL0R8Ucjns2//Qdi990C8RcBlYH/UrVNDjePJk6cYOWII8uXLjYZN2+kcU3wLeDnAKpUr4GDYEXz48EHneKNWOHZkN/o7DsGhI0c/e1+OHNmQNEkS/HH1+he1G5+VKeDjkz77JgHTI0ABb3ox4Yj0JEABrycoK6wW1wK+RPGi2LhuOfIULKkVm507tcWbN2+xYlUwkgixOMptCBo2qIfESRJj67YQuLp74d27d7Dv0x1lbUqjS49+2kgtCJyB8KPHMHN2kPqeFNN9e3VFhgzpsXzlWowZOxHv37/XGdlFQQE4cfI0pkwPUHXTi6yzz7jRcBrkiu+/z4gDu7cgR97i2nbOngxDpy591D2yzzatmuL5839gY1MK589fhIPTMFy7fkPVT5MmNcaPHYXq1Srh3dt3WCveNniKcX38+FFdr1a1EsaOccMPWTLj2PGTGDHSC1f+uKbt69bVM7Dr2heuw5xRqGB+TJjkB/+Zc1GhnC2CVy/S1itfpS5u3Lil/frimSOKafOmDZEkaRJMnT4Ls+cuUNfHjBqOJo3qI1OmjHj67Jka15mz59FRzEmWtSsXomKFsurva4I3iPkMjcZQPjeTJ45F4UIFxFivYtAQN5w6fU7VkT9vzp69gMqVy6NkiWKC0Rn0dXDR621GbIHKkzsXRroNxpy5C2NccMj7KeB1Pu6sQAJWRYAC3qrCbVmTpYC3rHgacjZxLeATJ06M7ZvXKIHnO8X/P5aP/vY9UatmVXTs3BspUqTAqmVBWLp8NebNX6LEZvjBEJQpVxOPnzxRwvhE+B6Ur1IP9+8/QNPGv8LNdRDaduiOx4+fCCHpj9DdezHdf45OZE0aN8CYkcMw3M0TO3bujib6c+XKoVPAS6tJxy69cfbcRXiOHo4ihQuiQeM2ql8vjxHIIsS548BhYmGQFiuWzsOMWYFYuWodZNshW4LRp58zDoQdFuLTDq1aNEGNOo2jCfjLV66KtxZT8Ndf9/Ho0WOt5SVhwoSq3p3r5wSH/wp4Kb7lfWVKl8R8Iazb2/XCkfBj2rZjysAnSJAA8o+zkz1y5cwRTcCnSpUSh/fvUG9RgtdtRKOGv8Bj1DCUr1wXz549VwJe3tO9lyPuP3iAAL9JuHnrNtxGjdUZh9gqpEieHL17dkHb1s3VokMuRjZs2vafBRoF/Ddh5s0kYHEEKOAtLqTWMyEKeOuJ9ZfONCYBP33KeCXMopZCRW3xVmRq8+bJjdAd66NdCxAZ8Am+0/XqXgpvJ8e+aC2EqrRmSCG//8Ahde+PP2TBW5Ftf/jwkfp62GAnZM6cCc6D3dTX8+ZMx/79h7Bg8XK0a9NC2V669uivrsls9G8btmDh4hXq61o1q2GEyFrXrNtEr3FVF5lwOa4CBfKpzPWUaTPxzz8vlMjWlYGvVaMKOoksuSwZ0qeDzNAXK1kRj8RCwm34IBQRGethrh5qwSKz+5EfIpXYdR5gj/z588JeZKhlkV78PuINghSnmjcHMgPfqm1XHA6PiHEe925e+KyAb92+G06f+TczPtXXG4+fPoGH5wRtO7osNIOc+iF37pzRBLzM6Pfsbof6jVpr21m3ZjFWrAzGytXrlIA/evQ4AubMV9el4G7dsimat7bTGYf2bVtirOe/sdaUzt3ssW9/WLTvybcP7du1RIXy4t9iUXLp0hXtdQp4nZhZgQSsigAFvFWF27ImSwFvWfE05GziOgMfdexSrDaoXwcThFWlZx8nHDh4GNIjLzeTlrUtozLAmTJmUBtKnVxc1a21alRVIrtRs3ZYvXw+5sxbiJCde9S1E0f3InnyZHgr7DiyJBZ2nEQiQ124eLkvQpYjezZh1RiCjBnTo3krO70E/Ken0Pxx8Rjqiwy8FJZJhX3Fwb4XmjdrqOa0Zu0GTPOfjcjISPj6jFEZdW+fKTGOUQr46rUbxepD10fADxTc5GKhn+NgbV9fI+Ad+vVCsZ8Ko7d4a6ApU3zH4s6de2oxJn/ehIcfx6y5/wp4Kfi7demg134CfQKVPVtW7aLg7PkLcBVvTf78628KeH3gsQ4JWCEBCngrDLqlTJkC3lIiafh5xLWAr12rOn4WPvhJU2doJzNu7EgkEdYal6EjIYWg3Ijp6u6pfPEyAywFtUbAS8tIeNhOJUJn+vmibMXaSgjLsmXDSmG3WYPtIbu0bUufuSabHxs9+cbBT5yGI60qsmQUC4ezJw6ilG01vBftnz62X3ngNX196oGPKuClxeTy+QiUKFMFDx48VHaaGzdv4+XLl8idKycC/H2xcfN2zJw1T80vT55c6D9giHZ4lSuVR9ihcO0eAUMJ+EkTPPHs+fNoGfijh0KVz19ugP1c+VwGvkWzRkqQ/9qkrfYW6ZlfJTYlS1uQsQS8fHMxw28ibIQdaNWa9ZgbtCia518zGGbgDf9zgi2SgDkToIA35+hZ+dgp4K38AYhl+nEt4AuIDPCWDaswbIQHNm/ZgZw5s2N+oD+WLlutNqIuWThbbQKVGWnpeZ8vfOxyM6j0j2vK4EEOKqu7Ufifo2auO3VojR5dO6FbLwclmOXm0IKiP42VI7anYNqkccia9Qc4i82YDx48Qq8edsIm0hm25Wvi1evXOHl0HxwGDlVWnxrVKqtxyhNqNJtYnQf0xa9N26pjMaXolX03bt5edbliSaDKnnt4+YhsfFLMnTUNhw6HK2++3Ji5bdNqZQOSJ8F0bN9K9N0FVWo00A43NgEf1QNfuXp9weqmVvjLTazzFy2D72R/lPy5OFYK7317u55i0+9xbdvBqxbh+IlTGD9xmnrjID32skT1wMsxajaxysWVfEtySHjgR3mMw3phWWrwS21MGO+BCpXr4cnTp0YT8NJe1azJr1gi9kRI+1FMhQKeP+9IgASiEqCA5/NgtgQo4M02dEYfeFwLeDmhsralhTd9EIoVLSw2oz5V4l1z+kshcarJVJGF//GHH3Dvzz+VIP5eeOCbteykZSEz8ocP7EDl6g20J71oLvbp2VWcCtNOnRxzRmyUlZn88xd+18kxufgcDRfn/mgmFgbpxLnqx46fwqgx43Hh4iV1r8ywe3u64+WrV8rqU6d2deFbH6wV8HJB8T7yPXLmyK421Pbt74LrN26qe+XpMl5jRqC88G1LYbx9R6iyfbx+80ZdlwsCby93YRfKqE6hkafuXL12XaeA//QUGs0N8iSZ0F17IQV86O59qCIy+h8+fMQs4UnX2Fo0dUuVLCHeZEyEtKVITvV+bakuRT2FRlP35OmzqN+wlfqyuDjDf5wYc8EC+cXi5Jo4OWesWgjIYqwMvM4g/n8FCnh9SbEeCVgHAQp464izRc6SAt4iw2qQScWHgDfIwNmITgJSwEfdxKrzBgupQAFvIYHkNEjAQAQo4A0Eks3EPQEK+Lhnbi49UsCbS6S+fJwU8Pxk8i9/angHCVgeAQp4y4up1cyIAt5qQv3FE6WA/2JkZnMDBTwFvNk8rBwoCRiRgEkLeCPOm02TAAmQAAmQAAmQAAmQgFkSoIA3y7Bx0CRAAiRAAiRAAiRAAtZKgALeWiPPeZMACZAACZAACZAACZglAQp4swwbB00CJEACJEACJEACJGCtBCjgrTXynDcJkAAJkAAJkAAJkIBZEqCAN8uwcdAkQAIkQAIkQAIkQALWSoAC3lojz3mTAAmQAAmQAAmQAAmYJQEKeLMMGwdNAiRAAiRAAiRAAiRgrQQo4K018pw3CZAACZAACZAACZCAWRIwaQHfo1snJEuWDDMC+MlzZvl0GXnQ/CRWIwM24+ZN7ZNY/ab6oGnjBngfGYlXr17hYFg43EeNxZ9//a0X5bRp06BH106YNHWGXvXjolLmzN/Dc9RwVKtaCf+8eIE1azfAd4o/3r9/HxfdW10f/H1odSHnhEkgVgIU8HxAzJYABbzZhs7oAzdFAX/lj6uY5jcbKVOmxGj3ocidKwdat++mF4tcou7h/TvwY84ietWPi0rBqxbh1u07GOM1AenSpcWM6b7Yt/8gvH2mxEX3VtcHBbzVhZwTJgEKeD4DlkmAAt4y42qIWekj4AsWyIe+vbth6fLViDh20hDdxtiGzMBrBLysVKRwQWzesBJ5C5ZS92TPlhXjx45EubI2uHPnLgYOdsOJk6fVta0bVyFHjuzImCE9/v77vvpe0MKlajEghf2B3VuQI29xbd9nT4ahU5c+2vtXLp2HrdtDUbVKBdSoXkVk/4+gY+fekIyC5vhh/qJlcLDviY8fP6oM+sLFK/Ricfl8BDp26Y0j4cdU/fJi7PXq1YSH5wS0a9NCvXFo06G7ulawYH5s37wGeQqUVF+nSJEC3p5uaPTrL3jy9Knq02/GHG2/Mqs/dowbfsiSGceOn8SIkV6C37V/702eHO4jXNC4YX2R7Y+Ej+80LF+5VntvwwZ1MdjZAdkE0wsXL8F9tDdOnjqjrqdJk1pwHoXq1Srh3dt3WLt+EzzHTlRzN/VCAW/qEeL4SCBuCTADH7e82ZsBCVDAGxCmhTUVm4CXQtO+T3fY2pbC2uCNmCxsKY8ePzEqgagCXopIj5HDkPXHH5TATZw4MUK2BmPbjlBMnR6AenVrKTFvU74WXr58qcYVUwZeXwFfvPhP8PKehDNnzyuLixS2ktHObevgITLo88WCwKZMKSxfHIgy5WvgwYOHOnlIIVy8WBG4jfLWLhY0N+kS8FN8x0Lagpxd3JAmbWosWzQX40TmfvPWHWquIVuC0aefMw6EHUaPbnZo1aIJatRprJqfMM5DLGiyobf9QLXwWbUsCF169FOLsIwZM+D4kT1o3tpOifbuXTuiZ3c72Faope718hiBLGJR4DhwGNKLtwYrxOJmxqxArFy1Tud847sCBXx8R4D9k4BpEaCAN614cDRfQIAC/gtgWVnVmAT8ujWLkUpYWIIWLMVvG7bg1evXWjJ58+RG6I710UgFzA7CBN/p6nvTp4xHo4a/RLteqKgt3opMrq4S1QOfLGlS7N0fhn4OLmrhULFCWQT4+aKkbTVtJnjrptXw85+DLdtCDCLgZZZ88rSZ0YYpGW1ctwz5CpfRfj/i8C44Og1D2OFwXVNCwAFk0AAAD41JREFUwoQJ0blTOyWSEyZMgNlzF2DRkpVqDrEJ+ESJEuHapROoXrsxrl67rvqpWL4skAAIOxQO5wH2yJ8/L+wFH1lk/T69uqr2EyRIgKu/H0fNuk1w+cpVdd19xGBIpm5iT0H6dOkQcThUCPThCAndrTL0cqF0W7zVkMVt+CAUEfMe5uqh7D+yfuSHSDx79lznfNu3bYmx4q1B1NK5m72wDYWpbx0NC0Wm7zNqL8s3KM1b2amvv+VeTYMU8DpDxAokYFUEKOCtKtyWNVkKeMuKpyFnE5OAlwKuWdOG2CYsJUuWrVKZ6LgoUTPwUqBKEdmzzwDVdYd2rTDOyx2Po7wFSJs2LbzG+SIwaLGq860Z+E1btmPx0lXRpioZbQhehvxF/ifgw/Ztg6ubJ/bsO/hFWEqX+hmTJniqDLrvZP9YBby0xZw4uhe58pf47OLH12cMHj16/FkvfZ7cuSDHeP/+A+1iR+4p2H/wELr1dFBjLlWyBAY69oWNTUlERJwUG3/9cer0OXUtadIkwi7UC82bNVSLAbnxdpr/bESKzcWmXijgTT1CHB8JxC0BCvi45c3eDEiAAt6AMC2sqdgsNNK60blTW3Wqy81bt2HvOBg3b942KoGoAl7aPI4eCkXNOk1w/cZN1BS+9DGjXdG0ZcdoY3jxzwvtGwJpGQk/uBNZc/0Uza+dKVNGnD62X3ngNSL0cx54Qwt4OZ7hQwai/4Ah+PDhgxq3fDsxfIgTKlb9BY0b1UfXzu3RrGUndS2qB16Tga9as6Gav2aBkjBBQly7fgODnPohT55cqm1NqVypvMrOy1PJrlyIQM16TfHw4SPt9bdv36oseob06cSG2nQqsy/FeptWzUTW3QXFSgnP+7t3au/BDRFraU3KnSsnAvx9sXHzdsycNc+o8TdE4xTwhqDINkjAcghQwFtOLK1uJhTwVhdyvSeszybWZMmSonXLpgiPOIHff7+sd9tfU/HTTaxTfb2FOH+F4SLbLTdl7g7ZIOwnKxA4f7HwhqdFP+HRnztvEe7cvae6k2L08vlj6N7bEXtFdlz66DUC9uTRfXAYOBT7DxxCjWqVsWThbDRs2i7aJlZDC/gkSZJgz84NCNm5B1OEb19+7eM9SllZOooNtPnz5cHG9ctRSYh5aRMaOniAssFoNrHK+adIkRzOQ9yQKlUqLBVj9hfHBUtbk8yybxMWoq49+uPQkaPo2L4VevXogio1GigWUnQnSpgIQ4aPxlshyjt1aI2LIn6Si02ZklgYFIAWwgMvvyc3wwbNmY7CxcsrAb9iSSD+uHpd+P59BNOkmDtrGg4Ju9B0YVcy9UIBb+oR4vhIIG4JUMDHLW/2ZkACFPAGhGlhTekj4ONyyp8K+KI/FVb+8zLlauLxkycqG+wtbDSlhf3jzZs3WCJOxpFWlKino0irzYjhzkiZIqWy/0jPtywyg+/t6Y6X4nz5AwcPo07t6sI/PtioAl72my3rjxjlNgRVxOk2cpwhIXswcsw4PH36TI1rgENv2HVsqzbEbtqyA85O9loBL20v0jbU4Jc6ePrsmdqTEDULLhcikkemjBnVKTSu7l5av3yqVP8ew1mvTk2VkQ/dvU/ZfuRpNrJI/32/vj2QRZxTL9+weHn7YvfeA+qatO94jRmB8uVslYVmu9g4LO99LZibeqGAN/UIcXwkELcEKODjljd7MyABCngDwrSwpkxNwFsYXk4nHghQwMcDdHZJAiZMgALehIPDocVOgAKeT0hMBCjg+WxYGgEKeEuLKOdDAt9GgAL+2/jx7ngkQAEfj/BNvGsKeBMPEIf3xQQo4L8YGW8gAYsmYNIC3qLJc3IkQAIkQAIkQAIkQAIk8BUEKOC/AhpvIQESIAESIAESIAESIIH4IkABH1/k2S8JkAAJkAAJkAAJkAAJfAUBCvivgMZbSIAESIAESIAESIAESCC+CFDAxxd59ksCJEACJEACJEACJEACX0GAAv4roPEWEiABEiABEiABEiABEogvAhTw8UWe/ZIACZAACZAACZAACZDAVxCggP8KaMa6JUWKFPDxHoVaNaupLga6uGJHyG5jdcd2SYAESIAESIAESIAEzJCASQt4U/vgirRp02CC92hUq1oJz549x/KVazFleoDBwj54kAPKl7VBj94D8OrVKyRMlAgvX77Utu86dCDSpUuHIcNHGaxPXQ3JOffo2gmTps6IserGdcsRtGAJ1v22WVdzBr3OD3IyKE6Laowf5GRR4TT4ZPizw+BI2SAJkEAcE6CA/wLgSxbMwp27f2L0mPHInOV7LJo3E3ODFmPJslVf0ErMVWX7obv3Y/7CpZ+tlCNHNiRNkgR/XL1ukP70aSRXrhw4vH8HfsxZJMbqJX8ujuvXb+LJ06f6NGmwOvwlbDCUFtcQBbzFhdSgE+LPDoPiZGMkQALxQMDsBbzMhvfr0x2t23czKr6cObNjz86NKPpzRZUdl6Vhg7qoWaMqnAe7qa8bN6oPd1cXZMqUEfv2hWHQUHc8ePBQXbt45gg8vCbAXoz1hyyZsXHzNgwa4o6PHz9CZt47tmulsutv3rxR7b969Rrlq9RV965duRAVK5RVf18TvAEOTkOjzdXWphSmTxkP7/GTMcp9KDJlzCh4dBWC+hmCxb0nT5+FTemS2LP3AEqVLIGr12+gg10vfPjwAWVtS8Nj5DDky5sHN27ewmhPHxwMO6La37pxFXLkyI6MGdLj77/vq+8FicXFNL/Z6u/3bl7QjkMykG8kNCVhwoQYMsgRne3aIoH4Z5m4Jsf3/v17SHEVNMcP8xctg4N9T8XAd4o/Fi5e8UUx5C/hL8JlVZUp4K0q3F88Wf7s+GJkvIEESMDECJilgE8krCVNhFju17cHvkuVCotFBtx/5lyjoq1Xt6YSpLXqNf1sP6VL/YwlC2ehU5e+uHDxEtxHuKBg/nxo0aazqi8FfOjufXB190Tq777DujWLMcpjPLZsC9G2t3LpPGzash2Ll0bP6CdIICSw+OPsZI9cOXN8VsAHr1qE3XsOYMasQCGSI/H7pcvImvVHbFi7FEVLVlQiPXXq7+A0yBUnwveivV1Pkcm/hlMR+9X3tofsQsf2rTBsyEAUE/WlqJYltgy8FOmyrFmxAKvX/hZNwMvYNPr1F3Tpbo+P4h8p2EN37cPkaTOVgN+5bZ1a0Mi3DTZlSmH54kCUKV9Du+DRJ5j8JawPJeusQwFvnXHXd9b82aEvKdYjARIwVQJmJ+BzZM+G4NWLcO7cRZGxXY49+w5qxaaEnDdPboTuWB+Nd8DsIEzwna6+JzPVjRr+Eu16oaK2ePv2Xawxktn1vr27oX7DVp+t5+szBk9FxtvT21ddlxtSz58+hKo1fsWt23eUgG/ToRtOnT6nHcfNm7dV5llTYhLwmuuDnPohd+6cnxXwK5YECuFdCa9ev9a2V7BgfqxeFoSfbapiiIsjUqVMiVHC/rNv12aR/XfDyVNnkSdPLly6dEXdkzhxYty6egZlytXA3Xt/qu/pY6GRbwjkm4GoGfiwfdvgPspbLVpkqVSxHKb6esO2Yi0l4DeuW4Z8hctoxxpxeBccnYYh7HC43v+t8Jew3qisriIFvNWF/IsmzJ8dX4SLlUmABEyQgNkJ+Azp02G82EharGhhIRiDsWJVMO7ff2B0tL/UraWsLjFl4JcLAb1t+85oNpAjB0LESTIjlCiVAl7afE6f+VfAS8H/6NFjePtMMYiAD5w1TQn1qEWXgD8acQJ1aldH7x5dkEHYZCIjIwXXIrCtUAu379z9JgF/48pp1P6lKS5fuaraySbeBoSH7UT2PMVQpHBBbAhehvxF/ifgpeB3dfNUCzJ9C38J60vK+upRwFtfzL9kxvzZ8SW0WJcESMAUCZidgNdAzJ0rp8qIt2jWSIi+A+rkFmMW2d+ukN9QtEQFbZZbit8a1SoLW4wXJk3wVIJ8rPB5y5IsWVJcEKK9Wq2GuHXr3wy8qQn4P//6G6Hb1qNpy444f+F3NW7pa48q4OXG2fCDO5E110/R3nREZf25DPyh/duVIN8tfPeyVChni+lTx6u2pbiigDfm08q2KeD5DMRGgAKezwcJkIC5EzBbAa8BLzeMymMOx0+cavRYyCz7dbEBVNpQ0os3AcsWzcW8+UuwbMUayI2k8wNnoG2H7iLr/IfwkjtBns7SrGUnNa5vEfBRPfB5cufSWmjkJlRZZN9fk4F/9+49pG2nUvX6ynsuF0P+0yagXOU6kPYeWZImTYLL54+he29H7BXZ8TRpUuPhw0fqWlQPfPD6TYqD9M7LP479e6FenZqw6yY88GKcgXOm49Dho5g4yY8C3uhPKjuggOczQAHPZ4AESMCSCZi9gI/L4KQXp8TID1qqUqUCXrx4qewyfjPmaIcgBfDAAfbImDE9jhw5hiGuo7Wnt3yLgI96Co2mM3myjMaP/7UCXlpohg4egHatW4g9AG+xc9cetGzeBF179teeRCP76yBOyBkx3BkpU6RUR2a6jRqrhhH1FBrNuGaK/QaeYydCbjQeLhYxLZo3VqfQ/LZxC7zGTcK7d+8o4OPyobXSvijgrTTwek6bGXg9QbEaCZCAyRKggDfZ0HBgugjwl7AuQtZ7nQLeemOvz8z5s0MfSqxDAiRgygQo4E05OhxbrAT4S5gPSEwEKOD5bMRGgD87+HyQAAmYOwEKeHOPoBWPn7+ErTj4OqZOAc9ngwKezwAJkIAlE0jwY87Cms/sseR5cm4kQAIkQAIkQAIkQAIkYPYExGd7IkG2XIU/Rv57mAkLCZAACZAACZAACZAACZCACRNIlFAI+Fz5fvr45i0VvAnHiUMjARIgARIgARIgARIgAUUgWdKESFCgULGPz1++JxISIAESIAESIAESIAESIAETJ5A6ZWIkKPJTsY/PXrwHbTQmHi0OjwRIgARIgARIgARIwKoJJBT+97TfKQFf/OPb9x/w4lWkVQPh5EmABEiABEiABEiABEjAlAmkSpEISRMLC40U8HKgL1+/x5t36q8sJEACJEACJEACJEACJEACJkQgWZIESJk8sRqRVsDLL168jsTbd9zQakKx4lBIgARIgARIgARIgASsnEDSJAmRKnkiLYVoAl5+99WbSLzmqTRW/phw+iRAAiRAAiRAAiRAAqZAILk4dSZFsv+J9/9k4DWDfC92tL568wHvI2mpMYXAcQwkQAIkQAIkQAIkQALWRSBxogRCuCdEYnnw+yflPxn4qNcjP3wUvngh5N9/xIePHyH+x0ICJEACJEACJEACJEACJGBgAvITVhOK/0ucOAGSCctMInnkTAzl/wCw6bOh/3+TtgAAAABJRU5ErkJggg==;" vertex="1" parent="1">
                    <mxGeometry x="20" y="60" width="752" height="401" as="geometry"/>
                </mxCell>
            </root>
        </mxGraphModel>
    </diagram>
</mxfile>